M48
METRIC,LZ,000.000
;FILE_FORMAT=3:3
;TYPE=PLATED
;Layer: PTH_Through
;EasyEDA v6.5.57, 2026-09-11 17:05:05
;0b758512adde4d3a95a2f5f056eff8a7,10
;Gerber Generator version 0.2
;Holesize 1 = 0.306 mm
T01C0.306
;Holesize 2 = 0.800 mm
T02C0.800
;Holesize 3 = 0.813 mm
T03C0.813
;Holesize 4 = 1.199 mm
T04C1.199
%
G05
G90
T01
X036650Y145852
X024176Y136496
X030493Y160246
T02
X045327Y093472
X043827Y093472
T03
X006477Y090805
X009017Y090805
X061976Y090805
X064516Y090805
X-003556Y158115
X-001016Y158115
X022860Y140462
X025400Y140462
X044323Y140716
X046863Y140716
X079248Y130810
X081788Y130810
T04
X036068Y148209
X051308Y148209
X018796Y148082
X034036Y148082
M30
