G04 Layer: TopLayer*
G04 EasyEDA v6.5.57, 2026-09-11 17:05:05*
G04 0b758512adde4d3a95a2f5f056eff8a7,10*
G04 Gerber Generator version 0.2*
G04 Scale: 100 percent, Rotated: No, Reflected: No *
G04 Dimensions in millimeters *
G04 leading zeros omitted , absolute positions ,4 integer and 5 decimal *
%FSLAX45Y45*%
%MOMM*%

%ADD10C,0.2032*%
%ADD11C,0.2540*%
%ADD12R,2.0000X1.0000*%
%ADD13O,0.58801X1.799996*%
%ADD14R,2.4000X6.1000*%
%ADD15R,0.0150X6.1000*%
%ADD16C,10.0000*%
%ADD17C,1.2000*%
%ADD18C,1.8796*%
%ADD19C,0.6100*%

%LPD*%
G36*
X4261764Y13402818D02*
G01*
X4261764Y13231469D01*
X4342485Y13231469D01*
X4348480Y13224967D01*
X4421073Y13150291D01*
X4428642Y13142264D01*
X4428642Y13140944D01*
X4342028Y13054380D01*
X4340961Y13055041D01*
X4340961Y13231469D01*
X4261764Y13231469D01*
X4261764Y13048183D01*
X4260342Y13048183D01*
X4118406Y13190219D01*
X4116425Y13189864D01*
X4057040Y13135152D01*
X4057040Y13133882D01*
X4236313Y12954609D01*
X4236313Y12953441D01*
X4150664Y12867792D01*
X4342384Y12867792D01*
X4428642Y12781534D01*
X4428642Y12779959D01*
X4341926Y12690805D01*
X4340961Y12691364D01*
X4340961Y12867792D01*
X4150664Y12867792D01*
X4056989Y12774117D01*
X4057700Y12772491D01*
X4115562Y12719304D01*
X4117594Y12717678D01*
X4260494Y12860578D01*
X4261764Y12859766D01*
X4261764Y12505232D01*
X4262729Y12505232D01*
X4556912Y12774726D01*
X4557014Y12776504D01*
X4548835Y12784378D01*
X4366717Y12953288D01*
X4366361Y12954660D01*
X4557014Y13131495D01*
X4557014Y13133476D01*
X4262882Y13402818D01*
G37*
G36*
X1799691Y14414601D02*
G01*
X1780590Y14414449D01*
X1773986Y14413839D01*
X1763166Y14413382D01*
X1760474Y14412874D01*
X1753870Y14412417D01*
X1735480Y14409724D01*
X1716938Y14406219D01*
X1702257Y14402612D01*
X1689150Y14398904D01*
X1668322Y14391843D01*
X1666849Y14391081D01*
X1666239Y14391081D01*
X1664411Y14390116D01*
X1663801Y14390116D01*
X1661972Y14389100D01*
X1661363Y14389100D01*
X1659534Y14388134D01*
X1658772Y14388134D01*
X1657807Y14387474D01*
X1645513Y14382242D01*
X1628648Y14373860D01*
X1620520Y14369440D01*
X1608429Y14362277D01*
X1600454Y14357146D01*
X1591513Y14351050D01*
X1581353Y14343684D01*
X1574952Y14338757D01*
X1564284Y14329968D01*
X1557528Y14324126D01*
X1549095Y14315592D01*
X1545793Y14311071D01*
X1543354Y14305991D01*
X1541881Y14299996D01*
X1541881Y14292427D01*
X1542745Y14287500D01*
X1543710Y14284706D01*
X1543710Y14284045D01*
X1546301Y14278914D01*
X1550212Y14274139D01*
X1554683Y14270532D01*
X1560576Y14267535D01*
X1561388Y14267535D01*
X1564182Y14266570D01*
X1569313Y14265757D01*
X1575917Y14265757D01*
X1580083Y14266570D01*
X1583029Y14267637D01*
X1587449Y14269770D01*
X1590141Y14271548D01*
X1595069Y14275257D01*
X1612341Y14290192D01*
X1624939Y14299692D01*
X1639925Y14309648D01*
X1652879Y14317218D01*
X1667357Y14324634D01*
X1681327Y14330832D01*
X1697989Y14337131D01*
X1713433Y14342008D01*
X1727657Y14345666D01*
X1743811Y14348917D01*
X1757070Y14350847D01*
X1769465Y14352016D01*
X1791106Y14353032D01*
X1808022Y14352625D01*
X1823262Y14351254D01*
X1843582Y14348206D01*
X1859534Y14344802D01*
X1880463Y14338757D01*
X1897989Y14332457D01*
X1917090Y14324126D01*
X1936038Y14314169D01*
X1952904Y14303654D01*
X1968449Y14292326D01*
X1990750Y14273225D01*
X1994407Y14270482D01*
X1999945Y14267586D01*
X2001672Y14267230D01*
X2003145Y14266621D01*
X2007819Y14265503D01*
X2016607Y14265503D01*
X2021281Y14266773D01*
X2025954Y14268805D01*
X2028901Y14270634D01*
X2031898Y14272971D01*
X2036064Y14277797D01*
X2037740Y14280184D01*
X2039112Y14282877D01*
X2040128Y14285620D01*
X2041601Y14291208D01*
X2041601Y14299031D01*
X2040737Y14303197D01*
X2039721Y14306651D01*
X2037486Y14311274D01*
X2034032Y14315948D01*
X2026157Y14323822D01*
X2013457Y14334591D01*
X1997252Y14347139D01*
X1983028Y14356892D01*
X1972360Y14363547D01*
X1951685Y14375282D01*
X1937461Y14382191D01*
X1919935Y14389862D01*
X1900224Y14396974D01*
X1884984Y14401698D01*
X1868322Y14405914D01*
X1843328Y14410690D01*
X1841855Y14410690D01*
X1838452Y14411401D01*
X1833524Y14411909D01*
X1831238Y14412366D01*
X1823516Y14412925D01*
X1821434Y14413382D01*
G37*
G36*
X1778863Y14311325D02*
G01*
X1762709Y14310410D01*
X1749450Y14308480D01*
X1740865Y14306753D01*
X1730603Y14304263D01*
X1722729Y14302079D01*
X1703628Y14295577D01*
X1686712Y14288312D01*
X1669084Y14279219D01*
X1654302Y14270024D01*
X1636979Y14257324D01*
X1623263Y14245082D01*
X1619859Y14241678D01*
X1615897Y14237258D01*
X1613458Y14233601D01*
X1611630Y14229943D01*
X1610410Y14225269D01*
X1609953Y14220342D01*
X1610309Y14213027D01*
X1610868Y14211554D01*
X1611579Y14208353D01*
X1614322Y14202765D01*
X1617726Y14198244D01*
X1621586Y14194790D01*
X1626362Y14191945D01*
X1633524Y14189354D01*
X1640128Y14188795D01*
X1645767Y14189151D01*
X1651660Y14190929D01*
X1655572Y14192961D01*
X1658772Y14195094D01*
X1662226Y14197787D01*
X1675434Y14209115D01*
X1686458Y14217446D01*
X1696262Y14223796D01*
X1708912Y14230857D01*
X1720138Y14236192D01*
X1720545Y14236192D01*
X1722526Y14237157D01*
X1741119Y14243608D01*
X1757070Y14247672D01*
X1762556Y14248688D01*
X1770532Y14249450D01*
X1794357Y14249958D01*
X1810715Y14249450D01*
X1820062Y14248688D01*
X1828139Y14247317D01*
X1837689Y14244929D01*
X1847494Y14241830D01*
X1857908Y14238224D01*
X1867712Y14234210D01*
X1878126Y14229130D01*
X1883511Y14226133D01*
X1891639Y14221155D01*
X1897481Y14217091D01*
X1910080Y14207439D01*
X1922983Y14196415D01*
X1927453Y14193062D01*
X1930603Y14191437D01*
X1936496Y14189354D01*
X1942592Y14188643D01*
X1945639Y14188643D01*
X1951177Y14189354D01*
X1954784Y14190573D01*
X1958492Y14192351D01*
X1962150Y14194790D01*
X1965807Y14198295D01*
X1968855Y14202206D01*
X1970633Y14205407D01*
X1972157Y14209115D01*
X1973376Y14213738D01*
X1973681Y14220901D01*
X1973072Y14225778D01*
X1971852Y14229892D01*
X1969922Y14234058D01*
X1967890Y14237004D01*
X1964436Y14240967D01*
X1961235Y14244066D01*
X1946300Y14257375D01*
X1930857Y14268805D01*
X1914652Y14278965D01*
X1897735Y14287804D01*
X1879803Y14295526D01*
X1860448Y14302079D01*
X1852168Y14304365D01*
X1833524Y14308480D01*
X1820316Y14310461D01*
X1810257Y14311223D01*
G37*
G36*
X1788414Y14209623D02*
G01*
X1772767Y14208506D01*
X1771243Y14208048D01*
X1767586Y14207693D01*
X1759000Y14205762D01*
X1746402Y14202003D01*
X1738223Y14199006D01*
X1727047Y14193926D01*
X1717090Y14188541D01*
X1711655Y14185087D01*
X1702054Y14178127D01*
X1698955Y14175536D01*
X1687423Y14164005D01*
X1683969Y14159839D01*
X1680819Y14155166D01*
X1678990Y14150492D01*
X1678076Y14146326D01*
X1677720Y14141704D01*
X1678279Y14136776D01*
X1679905Y14131391D01*
X1681175Y14128546D01*
X1683105Y14125295D01*
X1686712Y14120926D01*
X1690573Y14117523D01*
X1693113Y14115897D01*
X1696669Y14114068D01*
X1702409Y14112646D01*
X1710232Y14112138D01*
X1714652Y14112443D01*
X1719021Y14113865D01*
X1722983Y14115897D01*
X1727098Y14118539D01*
X1730603Y14121282D01*
X1738020Y14128089D01*
X1743608Y14132458D01*
X1748231Y14135557D01*
X1754073Y14138859D01*
X1760270Y14141805D01*
X1766316Y14143990D01*
X1772259Y14145717D01*
X1784756Y14148054D01*
X1798472Y14148054D01*
X1806549Y14146733D01*
X1811426Y14145717D01*
X1817420Y14143990D01*
X1823313Y14141856D01*
X1829104Y14139062D01*
X1834743Y14135811D01*
X1839925Y14132356D01*
X1845767Y14127683D01*
X1857552Y14117624D01*
X1860499Y14115643D01*
X1863953Y14113916D01*
X1867865Y14112646D01*
X1872894Y14111935D01*
X1876755Y14111935D01*
X1882444Y14112646D01*
X1887220Y14114170D01*
X1890623Y14115897D01*
X1894078Y14118132D01*
X1898497Y14122450D01*
X1901291Y14126260D01*
X1903222Y14130172D01*
X1904441Y14133423D01*
X1905203Y14137030D01*
X1905711Y14141297D01*
X1905203Y14147342D01*
X1903984Y14151965D01*
X1902968Y14154657D01*
X1901545Y14157502D01*
X1898751Y14161312D01*
X1887677Y14172336D01*
X1880920Y14178381D01*
X1876450Y14181886D01*
X1870659Y14185900D01*
X1860296Y14192097D01*
X1848713Y14197685D01*
X1838706Y14201648D01*
X1824532Y14205762D01*
X1823364Y14205762D01*
X1814677Y14207744D01*
X1810969Y14207998D01*
X1808886Y14208506D01*
X1797507Y14209420D01*
G37*
G36*
X1792681Y14103350D02*
G01*
X1788210Y14103299D01*
X1783537Y14102435D01*
X1780336Y14101572D01*
X1773732Y14098625D01*
X1770075Y14096136D01*
X1766366Y14093088D01*
X1762556Y14088872D01*
X1759204Y14083588D01*
X1757222Y14079169D01*
X1755698Y14074597D01*
X1755190Y14071092D01*
X1754936Y14064742D01*
X1755902Y14058087D01*
X1756867Y14054683D01*
X1758543Y14050619D01*
X1760626Y14046657D01*
X1764995Y14041221D01*
X1767128Y14039189D01*
X1770786Y14036243D01*
X1776018Y14033246D01*
X1776526Y14033246D01*
X1778355Y14032230D01*
X1778965Y14032230D01*
X1781098Y14031315D01*
X1785518Y14030299D01*
X1799031Y14030299D01*
X1802079Y14031264D01*
X1802638Y14031264D01*
X1809038Y14034109D01*
X1813661Y14037208D01*
X1816049Y14039189D01*
X1820976Y14044218D01*
X1824126Y14049298D01*
X1826107Y14053464D01*
X1827580Y14057884D01*
X1828190Y14061795D01*
X1828546Y14066672D01*
X1827784Y14074190D01*
X1826006Y14080185D01*
X1823618Y14085062D01*
X1822145Y14087449D01*
X1819351Y14090954D01*
X1816354Y14094053D01*
X1811985Y14097406D01*
X1806346Y14100352D01*
X1799234Y14102588D01*
G37*
D10*
X677671Y12066778D02*
G01*
X659129Y12057634D01*
X640842Y12039092D01*
X631444Y12020550D01*
X622300Y11992863D01*
X622300Y11946889D01*
X631444Y11918950D01*
X640842Y11900662D01*
X659129Y11882120D01*
X677671Y11872976D01*
X714755Y11872976D01*
X733044Y11882120D01*
X751586Y11900662D01*
X760729Y11918950D01*
X770128Y11946889D01*
X770128Y11992863D01*
X760729Y12020550D01*
X751586Y12039092D01*
X733044Y12057634D01*
X714755Y12066778D01*
X677671Y12066778D01*
X973328Y12066778D02*
G01*
X973328Y11872976D01*
X973328Y12066778D02*
G01*
X1037844Y12066778D01*
X1065529Y12057634D01*
X1084071Y12039092D01*
X1093470Y12020550D01*
X1102613Y11992863D01*
X1102613Y11946889D01*
X1093470Y11918950D01*
X1084071Y11900662D01*
X1065529Y11882120D01*
X1037844Y11872976D01*
X973328Y11872976D01*
X1163573Y12066778D02*
G01*
X1163573Y11872976D01*
X1163573Y12066778D02*
G01*
X1283715Y12066778D01*
X1163573Y11974576D02*
G01*
X1237487Y11974576D01*
X1163573Y11872976D02*
G01*
X1283715Y11872976D01*
X1344676Y12066778D02*
G01*
X1418589Y11872976D01*
X1492250Y12066778D02*
G01*
X1418589Y11872976D01*
D11*
X5130797Y14820894D02*
G01*
X3817795Y14820894D01*
X3625542Y14628642D01*
X2059150Y14628642D01*
X1879597Y14808194D01*
X2357117Y13268294D02*
G01*
X2485031Y13268294D01*
X2485031Y13268294D02*
G01*
X2485031Y13582187D01*
X2417594Y13649624D01*
X3517897Y16332194D02*
G01*
X3356988Y16332194D01*
X3049343Y16024550D01*
X1714497Y16490589D02*
G01*
X1645282Y16421374D01*
X1645282Y15894984D01*
X1694329Y15845937D01*
X2006216Y15845937D01*
X2095497Y15935218D01*
X2095497Y15935218D02*
G01*
X2095497Y15970600D01*
X2095497Y15935218D02*
G01*
X3352619Y14678096D01*
X3463998Y14678096D01*
X3606797Y14820894D01*
X3664963Y14585233D02*
G01*
X3435017Y14355287D01*
X3435017Y13268294D01*
X3307102Y13268294D02*
G01*
X3435017Y13268294D01*
X2382898Y16332194D02*
G01*
X2382898Y16665112D01*
X4652896Y16332194D02*
G01*
X4652896Y15999277D01*
X1714497Y15970600D02*
G01*
X1841497Y15970600D01*
X1841497Y15970600D02*
G01*
X1968497Y15970600D01*
X1841497Y16490589D02*
G01*
X1968497Y16490589D01*
X2066135Y16364732D02*
G01*
X1968497Y16267094D01*
X1968497Y15970600D01*
X2382898Y16665112D02*
G01*
X2242385Y16665112D01*
X2234994Y16657721D01*
X2234994Y16468516D01*
X2131209Y16364732D01*
X2066135Y16364732D01*
X2066135Y16364732D02*
G01*
X1968497Y16462369D01*
X1968497Y16490589D01*
X8178797Y13080994D02*
G01*
X7924797Y13080994D01*
X4686297Y14071594D02*
G01*
X4432297Y14071594D01*
X2539997Y14046194D02*
G01*
X2285997Y14046194D01*
X3403597Y15804103D02*
G01*
X3403597Y14808194D01*
X4652896Y15999277D02*
G01*
X4457722Y15804103D01*
X3403597Y15804103D01*
X3403597Y15804103D02*
G01*
X2578072Y15804103D01*
X2382898Y15999277D01*
X6451597Y9080494D02*
G01*
X6197597Y9080494D01*
X901697Y9080494D02*
G01*
X647697Y9080494D01*
X4382691Y9347194D02*
G01*
X4532703Y9347194D01*
X2382898Y16332194D02*
G01*
X2382898Y15999277D01*
X-101602Y15811494D02*
G01*
X-355602Y15811494D01*
D12*
G01*
X2357107Y13268299D03*
G01*
X3307092Y13268299D03*
G01*
X2357107Y12868300D03*
G01*
X3307092Y12868300D03*
D13*
G01*
X2095500Y16490594D03*
G01*
X1968500Y16490594D03*
G01*
X1841500Y16490594D03*
G01*
X1714500Y16490594D03*
G01*
X2095500Y15970605D03*
G01*
X1968500Y15970605D03*
G01*
X1841500Y15970605D03*
G01*
X1714500Y15970605D03*
D14*
G01*
X4652899Y16332200D03*
D16*
G01*
X3517900Y16332200D03*
D14*
G01*
X2382900Y16332200D03*
D17*
G01*
X4532706Y9347200D03*
G01*
X4382693Y9347200D03*
D18*
G01*
X647700Y9080500D03*
G01*
X901700Y9080500D03*
G01*
X6197600Y9080500D03*
G01*
X6451600Y9080500D03*
G01*
X-355600Y15811500D03*
G01*
X-101600Y15811500D03*
G01*
X2286000Y14046200D03*
G01*
X2540000Y14046200D03*
G01*
X4432300Y14071600D03*
G01*
X4686300Y14071600D03*
G01*
X7924800Y13081000D03*
G01*
X8178800Y13081000D03*
G01*
X3606800Y14820900D03*
G01*
X5130800Y14820900D03*
G01*
X1879600Y14808200D03*
G01*
X3403600Y14808200D03*
D19*
G01*
X3664963Y14585233D03*
G01*
X2417594Y13649624D03*
G01*
X3049343Y16024550D03*
M02*
