G04 Layer: BottomLayer*
G04 EasyEDA v6.5.57, 2026-09-11 17:05:05*
G04 0b758512adde4d3a95a2f5f056eff8a7,10*
G04 Gerber Generator version 0.2*
G04 Scale: 100 percent, Rotated: No, Reflected: No *
G04 Dimensions in millimeters *
G04 leading zeros omitted , absolute positions ,4 integer and 5 decimal *
%FSLAX45Y45*%
%MOMM*%

%ADD10C,0.2540*%
%ADD11C,1.2000*%
%ADD12C,1.8796*%
%ADD13C,0.6100*%
%ADD14C,0.0131*%

%LPD*%
D10*
X2417594Y13649624D02*
G01*
X2417594Y15392801D01*
X3049343Y16024550D01*
X3606797Y14820894D02*
G01*
X3664963Y14762728D01*
X3664963Y14585233D01*
X3403597Y14808194D02*
G01*
X2641597Y14046194D01*
X2539997Y14046194D01*
X7924797Y13080994D02*
G01*
X6980146Y12136343D01*
X4780760Y12136343D01*
X901697Y9080494D02*
G01*
X901697Y9746559D01*
X2309822Y11154684D01*
X2309822Y12766644D01*
X1964636Y13111830D01*
X-101602Y15811494D02*
G01*
X343837Y15366055D01*
X343837Y14217975D01*
X1449981Y13111830D01*
X1964636Y13111830D01*
X4686297Y14071594D02*
G01*
X4686297Y12230806D01*
X4780760Y12136343D01*
X4780760Y11317066D02*
G01*
X4540526Y11317066D01*
X4140172Y10916711D01*
X4140172Y9589714D01*
X4382691Y9347194D01*
X6197597Y9080494D02*
G01*
X6197597Y9900229D01*
X4780760Y11317066D01*
X4780760Y11317066D02*
G01*
X4780760Y12136343D01*
X1964636Y13111830D02*
G01*
X2539997Y13687191D01*
X2539997Y14046194D01*
X3403597Y14808194D02*
G01*
X3403597Y14763770D01*
X4095772Y14071594D01*
X4432297Y14071594D01*
D11*
G01*
X4532706Y9347200D03*
G01*
X4382693Y9347200D03*
D12*
G01*
X647700Y9080500D03*
G01*
X901700Y9080500D03*
G01*
X6197600Y9080500D03*
G01*
X6451600Y9080500D03*
G01*
X-355600Y15811500D03*
G01*
X-101600Y15811500D03*
G01*
X2286000Y14046200D03*
G01*
X2540000Y14046200D03*
G01*
X4432300Y14071600D03*
G01*
X4686300Y14071600D03*
G01*
X7924800Y13081000D03*
G01*
X8178800Y13081000D03*
G01*
X3606800Y14820900D03*
G01*
X5130800Y14820900D03*
G01*
X1879600Y14808200D03*
G01*
X3403600Y14808200D03*
D13*
G01*
X3664963Y14585233D03*
G01*
X2417594Y13649624D03*
G01*
X3049343Y16024550D03*
M02*
