G04 Layer: TopSilkscreenLayer*
G04 EasyEDA v6.5.57, 2026-09-11 17:05:05*
G04 0b758512adde4d3a95a2f5f056eff8a7,10*
G04 Gerber Generator version 0.2*
G04 Scale: 100 percent, Rotated: No, Reflected: No *
G04 Dimensions in millimeters *
G04 leading zeros omitted , absolute positions ,4 integer and 5 decimal *
%FSLAX45Y45*%
%MOMM*%

%ADD10C,0.1524*%
%ADD11C,0.2540*%
%ADD12C,0.1500*%
%ADD13C,0.3000*%
%ADD14C,0.0182*%

%LPD*%
D10*
X4534534Y9639808D02*
G01*
X4529200Y9650221D01*
X4518786Y9660636D01*
X4508627Y9665715D01*
X4487799Y9665715D01*
X4477384Y9660636D01*
X4466970Y9650221D01*
X4461636Y9639808D01*
X4456556Y9624060D01*
X4456556Y9598152D01*
X4461636Y9582658D01*
X4466970Y9572244D01*
X4477384Y9561829D01*
X4487799Y9556750D01*
X4508627Y9556750D01*
X4518786Y9561829D01*
X4529200Y9572244D01*
X4534534Y9582658D01*
X4568825Y9644887D02*
G01*
X4579238Y9650221D01*
X4594733Y9665715D01*
X4594733Y9556750D01*
X723900Y9551415D02*
G01*
X723900Y9442450D01*
X723900Y9442450D02*
G01*
X786129Y9442450D01*
X820420Y9551415D02*
G01*
X820420Y9442450D01*
X820420Y9551415D02*
G01*
X887984Y9551415D01*
X820420Y9499600D02*
G01*
X862076Y9499600D01*
X820420Y9442450D02*
G01*
X887984Y9442450D01*
X922273Y9551415D02*
G01*
X922273Y9442450D01*
X922273Y9551415D02*
G01*
X958850Y9551415D01*
X974344Y9546336D01*
X984757Y9535921D01*
X989837Y9525508D01*
X995171Y9509760D01*
X995171Y9483852D01*
X989837Y9468358D01*
X984757Y9457944D01*
X974344Y9447529D01*
X958850Y9442450D01*
X922273Y9442450D01*
X1029462Y9530587D02*
G01*
X1039876Y9535921D01*
X1055370Y9551415D01*
X1055370Y9442450D01*
X6273800Y9551415D02*
G01*
X6273800Y9442450D01*
X6273800Y9442450D02*
G01*
X6336029Y9442450D01*
X6370320Y9551415D02*
G01*
X6370320Y9442450D01*
X6370320Y9551415D02*
G01*
X6437884Y9551415D01*
X6370320Y9499600D02*
G01*
X6411975Y9499600D01*
X6370320Y9442450D02*
G01*
X6437884Y9442450D01*
X6472174Y9551415D02*
G01*
X6472174Y9442450D01*
X6472174Y9551415D02*
G01*
X6508750Y9551415D01*
X6524243Y9546336D01*
X6534658Y9535921D01*
X6539738Y9525508D01*
X6545072Y9509760D01*
X6545072Y9483852D01*
X6539738Y9468358D01*
X6534658Y9457944D01*
X6524243Y9447529D01*
X6508750Y9442450D01*
X6472174Y9442450D01*
X6584441Y9525508D02*
G01*
X6584441Y9530587D01*
X6589775Y9541002D01*
X6594856Y9546336D01*
X6605270Y9551415D01*
X6626097Y9551415D01*
X6636511Y9546336D01*
X6641591Y9541002D01*
X6646925Y9530587D01*
X6646925Y9520174D01*
X6641591Y9509760D01*
X6631177Y9494265D01*
X6579361Y9442450D01*
X6652006Y9442450D01*
X-279400Y16282416D02*
G01*
X-279400Y16173450D01*
X-279400Y16173450D02*
G01*
X-217170Y16173450D01*
X-182879Y16282416D02*
G01*
X-182879Y16173450D01*
X-182879Y16282416D02*
G01*
X-115315Y16282416D01*
X-182879Y16230600D02*
G01*
X-141223Y16230600D01*
X-182879Y16173450D02*
G01*
X-115315Y16173450D01*
X-81026Y16282416D02*
G01*
X-81026Y16173450D01*
X-81026Y16282416D02*
G01*
X-44450Y16282416D01*
X-28955Y16277336D01*
X-18542Y16266921D01*
X-13462Y16256507D01*
X-8128Y16240760D01*
X-8128Y16214852D01*
X-13462Y16199357D01*
X-18542Y16188944D01*
X-28955Y16178529D01*
X-44450Y16173450D01*
X-81026Y16173450D01*
X36576Y16282416D02*
G01*
X93726Y16282416D01*
X62484Y16240760D01*
X77978Y16240760D01*
X88392Y16235679D01*
X93726Y16230600D01*
X98805Y16214852D01*
X98805Y16204437D01*
X93726Y16188944D01*
X83312Y16178529D01*
X67563Y16173450D01*
X52070Y16173450D01*
X36576Y16178529D01*
X31242Y16183610D01*
X26162Y16194024D01*
X2362200Y14517116D02*
G01*
X2362200Y14408150D01*
X2362200Y14408150D02*
G01*
X2424429Y14408150D01*
X2458720Y14517116D02*
G01*
X2458720Y14408150D01*
X2458720Y14517116D02*
G01*
X2526284Y14517116D01*
X2458720Y14465300D02*
G01*
X2500375Y14465300D01*
X2458720Y14408150D02*
G01*
X2526284Y14408150D01*
X2560574Y14517116D02*
G01*
X2560574Y14408150D01*
X2560574Y14517116D02*
G01*
X2597150Y14517116D01*
X2612643Y14512036D01*
X2623058Y14501621D01*
X2628138Y14491207D01*
X2633472Y14475460D01*
X2633472Y14449552D01*
X2628138Y14434057D01*
X2623058Y14423644D01*
X2612643Y14413229D01*
X2597150Y14408150D01*
X2560574Y14408150D01*
X2719577Y14517116D02*
G01*
X2667761Y14444471D01*
X2745740Y14444471D01*
X2719577Y14517116D02*
G01*
X2719577Y14408150D01*
X4508500Y14542516D02*
G01*
X4508500Y14433550D01*
X4508500Y14433550D02*
G01*
X4570729Y14433550D01*
X4605020Y14542516D02*
G01*
X4605020Y14433550D01*
X4605020Y14542516D02*
G01*
X4672584Y14542516D01*
X4605020Y14490700D02*
G01*
X4646675Y14490700D01*
X4605020Y14433550D02*
G01*
X4672584Y14433550D01*
X4706874Y14542516D02*
G01*
X4706874Y14433550D01*
X4706874Y14542516D02*
G01*
X4743450Y14542516D01*
X4758943Y14537436D01*
X4769358Y14527021D01*
X4774438Y14516607D01*
X4779772Y14500860D01*
X4779772Y14474952D01*
X4774438Y14459457D01*
X4769358Y14449044D01*
X4758943Y14438629D01*
X4743450Y14433550D01*
X4706874Y14433550D01*
X4876291Y14542516D02*
G01*
X4824475Y14542516D01*
X4819141Y14495779D01*
X4824475Y14500860D01*
X4839970Y14506194D01*
X4855463Y14506194D01*
X4871211Y14500860D01*
X4881625Y14490700D01*
X4886706Y14474952D01*
X4886706Y14464537D01*
X4881625Y14449044D01*
X4871211Y14438629D01*
X4855463Y14433550D01*
X4839970Y14433550D01*
X4824475Y14438629D01*
X4819141Y14443710D01*
X4814061Y14454124D01*
X8001000Y13551916D02*
G01*
X8001000Y13442950D01*
X8001000Y13442950D02*
G01*
X8063229Y13442950D01*
X8097520Y13551916D02*
G01*
X8097520Y13442950D01*
X8097520Y13551916D02*
G01*
X8165084Y13551916D01*
X8097520Y13500100D02*
G01*
X8139175Y13500100D01*
X8097520Y13442950D02*
G01*
X8165084Y13442950D01*
X8199374Y13551916D02*
G01*
X8199374Y13442950D01*
X8199374Y13551916D02*
G01*
X8235950Y13551916D01*
X8251443Y13546836D01*
X8261858Y13536421D01*
X8266938Y13526007D01*
X8272272Y13510260D01*
X8272272Y13484352D01*
X8266938Y13468857D01*
X8261858Y13458444D01*
X8251443Y13448029D01*
X8235950Y13442950D01*
X8199374Y13442950D01*
X8368791Y13536421D02*
G01*
X8363711Y13546836D01*
X8347963Y13551916D01*
X8337550Y13551916D01*
X8322056Y13546836D01*
X8311641Y13531087D01*
X8306561Y13505179D01*
X8306561Y13479271D01*
X8311641Y13458444D01*
X8322056Y13448029D01*
X8337550Y13442950D01*
X8342884Y13442950D01*
X8358377Y13448029D01*
X8368791Y13458444D01*
X8374125Y13473937D01*
X8374125Y13479271D01*
X8368791Y13494766D01*
X8358377Y13505179D01*
X8342884Y13510260D01*
X8337550Y13510260D01*
X8322056Y13505179D01*
X8311641Y13494766D01*
X8306561Y13479271D01*
X4368800Y15215616D02*
G01*
X4368800Y15106650D01*
X4368800Y15215616D02*
G01*
X4415536Y15215616D01*
X4431029Y15210536D01*
X4436363Y15205202D01*
X4441443Y15194787D01*
X4441443Y15184374D01*
X4436363Y15173960D01*
X4431029Y15168879D01*
X4415536Y15163800D01*
X4368800Y15163800D01*
X4405122Y15163800D02*
G01*
X4441443Y15106650D01*
X4475734Y15194787D02*
G01*
X4486147Y15200121D01*
X4501895Y15215616D01*
X4501895Y15106650D01*
X2641600Y15202916D02*
G01*
X2641600Y15093950D01*
X2641600Y15202916D02*
G01*
X2688336Y15202916D01*
X2703829Y15197836D01*
X2709163Y15192502D01*
X2714243Y15182087D01*
X2714243Y15171674D01*
X2709163Y15161260D01*
X2703829Y15156179D01*
X2688336Y15151100D01*
X2641600Y15151100D01*
X2677922Y15151100D02*
G01*
X2714243Y15093950D01*
X2753868Y15177007D02*
G01*
X2753868Y15182087D01*
X2758947Y15192502D01*
X2764281Y15197836D01*
X2774695Y15202916D01*
X2795270Y15202916D01*
X2805684Y15197836D01*
X2811018Y15192502D01*
X2816097Y15182087D01*
X2816097Y15171674D01*
X2811018Y15161260D01*
X2800604Y15145766D01*
X2748534Y15093950D01*
X2821431Y15093950D01*
X2889821Y13530605D02*
G01*
X2879407Y13541019D01*
X2863913Y13546099D01*
X2843085Y13546099D01*
X2827591Y13541019D01*
X2817177Y13530605D01*
X2817177Y13520191D01*
X2822257Y13509777D01*
X2827591Y13504443D01*
X2838005Y13499363D01*
X2869247Y13488949D01*
X2879407Y13483869D01*
X2884741Y13478535D01*
X2889821Y13468121D01*
X2889821Y13452627D01*
X2879407Y13442213D01*
X2863913Y13437133D01*
X2843085Y13437133D01*
X2827591Y13442213D01*
X2817177Y13452627D01*
X2924111Y13546099D02*
G01*
X2950273Y13437133D01*
X2976181Y13546099D02*
G01*
X2950273Y13437133D01*
X2976181Y13546099D02*
G01*
X3002089Y13437133D01*
X3027997Y13546099D02*
G01*
X3002089Y13437133D01*
X3062287Y13525271D02*
G01*
X3072701Y13530605D01*
X3088449Y13546099D01*
X3088449Y13437133D01*
X1905000Y16726916D02*
G01*
X1905000Y16648937D01*
X1910079Y16633444D01*
X1920494Y16623029D01*
X1936241Y16617950D01*
X1946656Y16617950D01*
X1962150Y16623029D01*
X1972563Y16633444D01*
X1977643Y16648937D01*
X1977643Y16726916D01*
X2011934Y16706087D02*
G01*
X2022347Y16711421D01*
X2038095Y16726916D01*
X2038095Y16617950D01*
X3517900Y17234916D02*
G01*
X3517900Y17156937D01*
X3522979Y17141444D01*
X3533393Y17131029D01*
X3549141Y17125950D01*
X3559556Y17125950D01*
X3575050Y17131029D01*
X3585463Y17141444D01*
X3590543Y17156937D01*
X3590543Y17234916D01*
X3630168Y17209008D02*
G01*
X3630168Y17214087D01*
X3635247Y17224502D01*
X3640581Y17229836D01*
X3650995Y17234916D01*
X3671570Y17234916D01*
X3681984Y17229836D01*
X3687318Y17224502D01*
X3692397Y17214087D01*
X3692397Y17203674D01*
X3687318Y17193260D01*
X3676904Y17177766D01*
X3624834Y17125950D01*
X3697731Y17125950D01*
G36*
X4617720Y9467189D02*
G01*
X4617669Y9227210D01*
X4625543Y9236557D01*
X4632706Y9246463D01*
X4639208Y9256826D01*
X4644999Y9267596D01*
X4647641Y9273082D01*
X4652264Y9284411D01*
X4656175Y9295993D01*
X4659223Y9307830D01*
X4660493Y9313773D01*
X4662322Y9325864D01*
X4663389Y9338056D01*
X4663592Y9350248D01*
X4662982Y9362440D01*
X4661509Y9374581D01*
X4660493Y9380626D01*
X4657801Y9392564D01*
X4654296Y9404248D01*
X4650028Y9415678D01*
X4647641Y9421317D01*
X4642205Y9432290D01*
X4636058Y9442805D01*
X4629200Y9452965D01*
X4621682Y9462566D01*
G37*
G36*
X4282897Y16437203D02*
G01*
X4282897Y16227196D01*
X4312920Y16227196D01*
X4312920Y16437203D01*
G37*
G36*
X4192879Y16347186D02*
G01*
X4192879Y16317213D01*
X4402886Y16317213D01*
X4402886Y16347186D01*
G37*
D11*
X4437700Y9467199D02*
G01*
X4353880Y9467199D01*
X4397060Y9429099D02*
G01*
X4397060Y9507839D01*
X1028700Y8890000D02*
G01*
X1028700Y9271000D01*
X6578600Y8890000D02*
G01*
X6578600Y9271000D01*
X25400Y15621000D02*
G01*
X25400Y16002000D01*
X2667000Y13855700D02*
G01*
X2667000Y14236700D01*
X4813300Y13881100D02*
G01*
X4813300Y14262100D01*
X8305800Y12890500D02*
G01*
X8305800Y13271500D01*
X3794759Y14594839D02*
G01*
X3794759Y15046960D01*
X3794759Y15046960D02*
G01*
X4942840Y15046960D01*
X4942840Y15046960D02*
G01*
X4942840Y14594839D01*
X4942840Y14594839D02*
G01*
X3794759Y14594839D01*
X2067559Y14582139D02*
G01*
X2067559Y15034260D01*
X2067559Y15034260D02*
G01*
X3215640Y15034260D01*
X3215640Y15034260D02*
G01*
X3215640Y14582139D01*
X3215640Y14582139D02*
G01*
X2067559Y14582139D01*
X2517089Y13361423D02*
G01*
X2517089Y12775196D01*
X3147090Y12775196D02*
G01*
X3147090Y13361423D01*
X2517089Y12775196D02*
G01*
X2517089Y12748308D01*
X2517089Y13388306D02*
G01*
X2517089Y13361423D01*
X3147090Y12775196D02*
G01*
X3147090Y12748308D01*
X3147090Y13388306D02*
G01*
X3147090Y13361423D01*
X2517089Y12748308D02*
G01*
X3147090Y12748308D01*
X2517089Y13388306D02*
G01*
X3147090Y13388306D01*
D12*
X1652379Y16078459D02*
G01*
X2157620Y16078459D01*
X1652379Y16382740D02*
G01*
X2157620Y16382740D01*
X1652379Y16187061D02*
G01*
X1652379Y16078459D01*
X1652379Y16275489D02*
G01*
X1652379Y16382740D01*
X1698244Y16078459D02*
G01*
X1652379Y16078459D01*
X1825244Y16078459D02*
G01*
X1730755Y16078459D01*
X1952243Y16078459D02*
G01*
X1857755Y16078459D01*
X2079243Y16078459D02*
G01*
X1984756Y16078459D01*
X2157620Y16078459D02*
G01*
X2111756Y16078459D01*
X2157620Y16382740D02*
G01*
X2157620Y16078459D01*
X1698244Y16382740D02*
G01*
X1652379Y16382740D01*
X1825244Y16382740D02*
G01*
X1730755Y16382740D01*
X1952243Y16382740D02*
G01*
X1857755Y16382740D01*
X2079243Y16382740D02*
G01*
X1984756Y16382740D01*
X2157620Y16382740D02*
G01*
X2111756Y16382740D01*
D11*
X2453901Y15870699D02*
G01*
X2453901Y15869602D01*
X2680802Y15642701D01*
X4582899Y15870699D02*
G01*
X4582899Y15870600D01*
X4354898Y15642600D01*
X4582899Y15870699D02*
G01*
X4582899Y16004085D01*
X2453901Y15870699D02*
G01*
X2453901Y16004085D01*
X2732902Y17072698D02*
G01*
X2732902Y17072597D01*
X2452903Y16792597D01*
X4302899Y17072698D02*
G01*
X4302899Y17071698D01*
X4581898Y16792699D01*
X4581898Y16792699D02*
G01*
X4581898Y16660314D01*
X2452903Y16792597D02*
G01*
X2452903Y16660314D01*
X4302899Y17072698D02*
G01*
X2732902Y17072698D01*
G75*
G01*
X4457573Y9547098D02*
G03*
X4460875Y9547098I1651J-199993D01*
G75*
G01*
X1028700Y8890000D02*
G02*
X1028700Y9271000I-254000J190500D01*
G75*
G01*
X6578600Y8890000D02*
G02*
X6578600Y9271000I-254000J190500D01*
G75*
G01*
X25400Y15621000D02*
G02*
X25400Y16002000I-254000J190500D01*
G75*
G01*
X2667000Y13855700D02*
G02*
X2667000Y14236700I-254000J190500D01*
G75*
G01*
X4813300Y13881100D02*
G02*
X4813300Y14262100I-254000J190500D01*
G75*
G01*
X8305800Y12890500D02*
G02*
X8305800Y13271500I-254000J190500D01*
D12*
G75*
G01*
X1652379Y16187062D02*
G03*
X1652379Y16275489I0J44214D01*
D11*
G75*
G01*
X2680802Y15642702D02*
G02*
X4354830Y15642590I836649J-5470594D01*
G75*
G01
X1028700Y9080500D02*
G03X1028700Y9080500I-254000J0D01*
G75*
G01
X6578600Y9080500D02*
G03X6578600Y9080500I-254000J0D01*
G75*
G01
X25400Y15811500D02*
G03X25400Y15811500I-254000J0D01*
G75*
G01
X2667000Y14046200D02*
G03X2667000Y14046200I-254000J0D01*
G75*
G01
X4813300Y14071600D02*
G03X4813300Y14071600I-254000J0D01*
G75*
G01
X8305800Y13081000D02*
G03X8305800Y13081000I-254000J0D01*
G75*
G01
X2982100Y13068300D02*
G03X2982100Y13068300I-150012J0D01*
D13*
G75*
G01
X1729511Y16129000D02*
G03X1729511Y16129000I-15011J0D01*
M02*
