G04 Layer: BoardOutlineLayer*
G04 EasyEDA v6.5.57, 2026-09-11 17:05:05*
G04 0b758512adde4d3a95a2f5f056eff8a7,10*
G04 Gerber Generator version 0.2*
G04 Scale: 100 percent, Rotated: No, Reflected: No *
G04 Dimensions in millimeters *
G04 leading zeros omitted , absolute positions ,4 integer and 5 decimal *
%FSLAX45Y45*%
%MOMM*%

%ADD10C,0.2540*%
%ADD11C,0.0132*%
D10*
X2488740Y12829052D02*
G01*
X2511140Y12815793D01*
X2551831Y12769230D01*
X2561531Y12744691D01*
X2564061Y12692936D01*
X2545158Y12644097D01*
X2479266Y12580025D01*
X2453083Y12366426D01*
X1884405Y11838886D01*
X1757319Y11731117D01*
X1722407Y11708897D01*
X1652638Y11681973D01*
X1606821Y11627599D01*
X1559453Y11597462D01*
X1504881Y11591317D01*
X1477037Y11597462D01*
X1449969Y11609859D01*
X1412367Y11638117D01*
X1397899Y11642316D01*
X1231087Y11627787D01*
X1086357Y11622775D01*
X915057Y11622044D01*
X489216Y11634086D01*
X284192Y11812940D01*
X225562Y11844487D01*
X196651Y11869973D01*
X174363Y11905170D01*
X170289Y11977941D01*
X174363Y11997512D01*
X196651Y12032716D01*
X222757Y12056219D01*
X251564Y12071969D01*
X281825Y12080087D01*
X312303Y12080714D01*
X341751Y12073961D01*
X368932Y12059970D01*
X392595Y12038860D01*
X411502Y12010770D01*
X424073Y11973328D01*
X423621Y11935457D01*
X410474Y11897753D01*
X361218Y11834317D01*
X424190Y11796600D01*
X523961Y11718198D01*
X1388869Y11722775D01*
X1404620Y11773372D01*
X1434734Y11810212D01*
X1477157Y11833887D01*
X1525445Y11840900D01*
X1549778Y11837057D01*
X1582011Y11821741D01*
X1642120Y11772371D01*
X1665894Y11773971D01*
X1709397Y11803514D01*
X1796521Y11877283D01*
X2368067Y12406652D01*
X2386347Y12591336D01*
X2335039Y12647538D01*
X2321420Y12679207D01*
X2316683Y12712062D01*
X2320404Y12744363D01*
X2332136Y12774401D01*
X2351448Y12800434D01*
X2377889Y12820749D01*
X2411028Y12833621D01*
X2447142Y12838193D01*
X2488740Y12829052D01*
X2457704Y8713978D02*
G01*
X2436113Y8700008D01*
X2418841Y8681720D01*
X2405379Y8660637D01*
X2396490Y8637270D01*
X2392679Y8587231D01*
X2398268Y8562594D01*
X2455163Y8562594D01*
X2455163Y8562594D01*
X2455163Y8496045D01*
X2483865Y8485124D01*
X2514345Y8481568D01*
X2544825Y8485124D01*
X2573527Y8496045D01*
X2598927Y8514079D01*
X2619502Y8539226D01*
X2635758Y8579358D01*
X2637281Y8618981D01*
X2626106Y8655558D01*
X2604770Y8686800D01*
X2575052Y8710676D01*
X2539238Y8724645D01*
X2499359Y8726424D01*
X2457704Y8713978D01*
X4514789Y8711133D02*
G01*
X4478449Y8679594D01*
X4465612Y8660798D01*
X4451250Y8619101D01*
X4452838Y8574483D01*
X4459932Y8552047D01*
X4481426Y8518530D01*
X4511055Y8495964D01*
X4545893Y8484072D01*
X4583013Y8482563D01*
X4619487Y8491176D01*
X4652403Y8509619D01*
X4678822Y8537625D01*
X4695812Y8574905D01*
X4699472Y8611021D01*
X4686670Y8649878D01*
X4668974Y8681405D01*
X4646561Y8703934D01*
X4618149Y8718407D01*
X4582441Y8725761D01*
X4546216Y8724620D01*
X4514789Y8711133D01*
X6262885Y9213992D02*
G01*
X6233703Y9196146D01*
X6211404Y9173090D01*
X6196223Y9146280D01*
X6188372Y9117192D01*
X6188075Y9087284D01*
X6195517Y9058033D01*
X6210945Y9030903D01*
X6234546Y9007363D01*
X6266644Y8987607D01*
X6297289Y8978905D01*
X6328790Y8981008D01*
X6363456Y8993647D01*
X6394958Y9014551D01*
X6417457Y9041048D01*
X6430962Y9071272D01*
X6435463Y9103362D01*
X6430962Y9135447D01*
X6417457Y9165678D01*
X6394958Y9192171D01*
X6363456Y9213075D01*
X6335019Y9225434D01*
X6313525Y9229643D01*
X6291844Y9225805D01*
X6262885Y9213992D01*
X741560Y9222221D02*
G01*
X713041Y9208287D01*
X686927Y9186217D01*
X665962Y9158833D01*
X652871Y9128963D01*
X649218Y9092846D01*
X662017Y9053990D01*
X677001Y9027002D01*
X696874Y9006791D01*
X723087Y8991892D01*
X757100Y8980848D01*
X788888Y8981145D01*
X824872Y8993535D01*
X858286Y9014663D01*
X882357Y9041190D01*
X896856Y9076753D01*
X898928Y9112801D01*
X890203Y9147243D01*
X872299Y9177987D01*
X846856Y9202948D01*
X815497Y9220032D01*
X779858Y9227151D01*
X741560Y9222221D01*
X4395017Y11319576D02*
G01*
X4383036Y11307612D01*
X4376315Y11293147D01*
X4374466Y11277432D01*
X4377072Y11261750D01*
X4383758Y11247343D01*
X4394113Y11235486D01*
X4407755Y11227450D01*
X4424276Y11224493D01*
X4440831Y11227488D01*
X4454585Y11235618D01*
X4465129Y11247587D01*
X4472048Y11262090D01*
X4474938Y11277841D01*
X4473389Y11293530D01*
X4467001Y11307874D01*
X4455355Y11319576D01*
X4438215Y11329974D01*
X4425193Y11334203D01*
X4412157Y11329974D01*
X4395017Y11319576D01*
X913444Y10343126D02*
G01*
X903782Y10320182D01*
X903386Y10298783D01*
X911900Y10280121D01*
X928984Y10265407D01*
X953213Y10256725D01*
X977440Y10267236D01*
X995499Y10285636D01*
X1001217Y10310210D01*
X998606Y10328572D01*
X991486Y10343642D01*
X980914Y10355013D01*
X967953Y10362326D01*
X953665Y10365171D01*
X939111Y10363182D01*
X925352Y10355963D01*
X913444Y10343126D01*
X1793892Y10458325D02*
G01*
X1782968Y10441805D01*
X1778495Y10424591D01*
X1779717Y10407873D01*
X1785894Y10392841D01*
X1796267Y10380675D01*
X1810090Y10372570D01*
X1826618Y10369710D01*
X1845096Y10373296D01*
X1864319Y10386354D01*
X1874807Y10405752D01*
X1875693Y10428584D01*
X1866125Y10451927D01*
X1850082Y10467837D01*
X1831037Y10474325D01*
X1811479Y10471205D01*
X1793892Y10458325D01*
X2628628Y11315915D02*
G01*
X2616100Y11299377D01*
X2611376Y11282319D01*
X2614363Y11264229D01*
X2624968Y11244602D01*
X2640830Y11230043D01*
X2660624Y11224834D01*
X2681808Y11229045D01*
X2701775Y11242774D01*
X2713855Y11256789D01*
X2718915Y11269172D01*
X2717464Y11282758D01*
X2709999Y11300376D01*
X2692524Y11323116D01*
X2672407Y11333515D01*
X2650728Y11331234D01*
X2628628Y11315915D01*
X4396841Y9409645D02*
G01*
X4388408Y9389584D01*
X4388965Y9369872D01*
X4398256Y9351528D01*
X4416041Y9335592D01*
X4434855Y9328119D01*
X4453420Y9329991D01*
X4470438Y9340601D01*
X4484613Y9359361D01*
X4491545Y9375391D01*
X4492736Y9388157D01*
X4487578Y9400245D01*
X4475472Y9414215D01*
X4454959Y9428286D01*
X4433415Y9432162D01*
X4413250Y9425917D01*
X4396841Y9409645D01*
X3832733Y10458325D02*
G01*
X3821435Y10440926D01*
X3817764Y10422669D01*
X3821805Y10405094D01*
X3833652Y10389753D01*
X3854574Y10377512D01*
X3876959Y10374784D01*
X3897807Y10381140D01*
X3914104Y10396153D01*
X3921706Y10415363D01*
X3920939Y10433768D01*
X3913436Y10450134D01*
X3900848Y10463237D01*
X3884836Y10471838D01*
X3867050Y10474708D01*
X3849128Y10470616D01*
X3832733Y10458325D01*
X4030215Y12559339D02*
G01*
X4015531Y12547978D01*
X4005313Y12530193D01*
X4000908Y12509835D01*
X4003713Y12490767D01*
X4013995Y12478077D01*
X4031134Y12466078D01*
X4050431Y12461676D01*
X4067906Y12465136D01*
X4082590Y12474729D01*
X4093530Y12488707D01*
X4099755Y12505352D01*
X4100301Y12522906D01*
X4094213Y12539657D01*
X4080507Y12553850D01*
X4057078Y12566878D01*
X4030215Y12559339D01*
X2604863Y9409645D02*
G01*
X2596431Y9389188D01*
X2597089Y9369419D01*
X2606662Y9351020D01*
X2624968Y9334672D01*
X2638450Y9327014D01*
X2648397Y9324845D01*
X2658529Y9328503D01*
X2672519Y9338332D01*
X2690390Y9355132D01*
X2698910Y9371929D01*
X2698353Y9389757D01*
X2688976Y9409645D01*
X2670175Y9427133D01*
X2646921Y9432963D01*
X2623654Y9427133D01*
X2604863Y9409645D01*
X3182688Y10460149D02*
G01*
X3172594Y10443679D01*
X3168512Y10422321D01*
X3170598Y10401139D01*
X3179030Y10385183D01*
X3197771Y10375638D01*
X3221992Y10373984D01*
X3244850Y10379522D01*
X3259485Y10391581D01*
X3267844Y10421937D01*
X3262574Y10448607D01*
X3245469Y10467566D01*
X3233044Y10472892D01*
X3218345Y10474777D01*
X3198799Y10470555D01*
X3182688Y10460149D01*
X2995251Y12544709D02*
G01*
X2981871Y12524625D01*
X2977319Y12508136D01*
X2981497Y12493023D01*
X2994347Y12477048D01*
X3010880Y12464521D01*
X3027944Y12459797D01*
X3046028Y12462779D01*
X3065660Y12473396D01*
X3077555Y12485359D01*
X3084040Y12499820D01*
X3085541Y12515532D01*
X3082452Y12531222D01*
X3075223Y12545628D01*
X3064245Y12557478D01*
X3049948Y12565522D01*
X3032744Y12568478D01*
X3014004Y12561397D01*
X2995251Y12544709D01*
X5547928Y11762084D02*
G01*
X5534197Y11751802D01*
X5525739Y11737789D01*
X5522229Y11721604D01*
X5523359Y11704830D01*
X5528802Y11689041D01*
X5538279Y11675813D01*
X5551462Y11666722D01*
X5568033Y11663344D01*
X5588124Y11668241D01*
X5607347Y11680601D01*
X5621784Y11696898D01*
X5627463Y11713629D01*
X5621002Y11729460D01*
X5605871Y11749057D01*
X5588508Y11765569D01*
X5575350Y11772143D01*
X5547928Y11762084D01*
X6762998Y11996143D02*
G01*
X6749232Y11979145D01*
X6742658Y11955457D01*
X6743971Y11931086D01*
X6753857Y11912028D01*
X6770055Y11903372D01*
X6790890Y11901741D01*
X6811713Y11906628D01*
X6827911Y11917512D01*
X6839445Y11935785D01*
X6842658Y11955345D01*
X6837822Y11974728D01*
X6825170Y11992483D01*
X6810065Y12005010D01*
X6796148Y12009742D01*
X6781205Y12006752D01*
X6762998Y11996143D01*
X1494010Y11760255D02*
G01*
X1477355Y11745087D01*
X1469095Y11722547D01*
X1470093Y11698287D01*
X1481211Y11677972D01*
X1498643Y11666369D01*
X1516979Y11663504D01*
X1534634Y11667896D01*
X1550007Y11678084D01*
X1561528Y11692608D01*
X1567606Y11709989D01*
X1566656Y11728759D01*
X1557096Y11747456D01*
X1543385Y11760131D01*
X1528297Y11766544D01*
X1511838Y11766610D01*
X1494010Y11760255D01*
X266136Y11991571D02*
G01*
X250075Y11973557D01*
X243278Y11953745D01*
X246075Y11934098D01*
X258818Y11916600D01*
X276801Y11905995D01*
X297792Y11901741D01*
X317573Y11903999D01*
X331960Y11912940D01*
X344147Y11932884D01*
X347847Y11951797D01*
X343148Y11970029D01*
X330131Y11987913D01*
X312935Y12003526D01*
X299504Y12009282D01*
X285389Y12005269D01*
X266136Y11991571D01*
X8034759Y13245045D02*
G01*
X8015597Y13230349D01*
X8000070Y13212173D01*
X7980710Y13168591D01*
X7978327Y13120717D01*
X7983997Y13097184D01*
X7994538Y13074990D01*
X8019679Y13047705D01*
X8054416Y13028823D01*
X8093273Y13020222D01*
X8130766Y13023794D01*
X8165355Y13039818D01*
X8192815Y13063562D01*
X8211888Y13093476D01*
X8221278Y13128023D01*
X8219678Y13163834D01*
X8208467Y13195807D01*
X8189340Y13222820D01*
X8164017Y13243793D01*
X8134200Y13257596D01*
X8101584Y13263145D01*
X8067860Y13259333D01*
X8034759Y13245045D01*
X-1055911Y13256933D02*
G01*
X-1094315Y13228586D01*
X-1121674Y13192676D01*
X-1133015Y13153534D01*
X-1130231Y13114256D01*
X-1115225Y13077962D01*
X-1089893Y13047748D01*
X-1056126Y13026732D01*
X-1015827Y13018015D01*
X-970887Y13024705D01*
X-936320Y13042285D01*
X-910889Y13067451D01*
X-894704Y13097929D01*
X-887915Y13131446D01*
X-890638Y13165739D01*
X-903003Y13198530D01*
X-925134Y13227557D01*
X-957176Y13250534D01*
X-1006203Y13261962D01*
X-1055911Y13256933D01*
X4576043Y14194066D02*
G01*
X4602833Y14177149D01*
X4624748Y14156395D01*
X4641540Y14132626D01*
X4652962Y14106641D01*
X4658766Y14079240D01*
X4658718Y14051229D01*
X4652553Y14023411D01*
X4625119Y13976134D01*
X4589264Y13946880D01*
X4569185Y13937841D01*
X4526904Y13930307D01*
X4484613Y13936017D01*
X4445756Y13953975D01*
X4413758Y13983215D01*
X4401405Y14001750D01*
X4386112Y14046045D01*
X4384042Y14071556D01*
X4390603Y14117866D01*
X4409765Y14156128D01*
X4440745Y14185465D01*
X4482790Y14205043D01*
X4528045Y14211894D01*
X4576043Y14194066D01*
X4539480Y14304695D02*
G01*
X4497511Y14293768D01*
X4421621Y14257957D01*
X4357700Y14206189D01*
X4307271Y14141660D01*
X4271850Y14067569D01*
X4252963Y13987096D01*
X4252130Y13903449D01*
X4258952Y13861422D01*
X4288048Y13778984D01*
X4320120Y13724625D01*
X4359473Y13678755D01*
X4407235Y13640259D01*
X4464509Y13608019D01*
X4529645Y13583561D01*
X4612617Y13579673D01*
X4692500Y13584013D01*
X4722799Y13590475D01*
X4752502Y13600701D01*
X4807221Y13630485D01*
X4863132Y13675103D01*
X4912184Y13727087D01*
X4946327Y13778984D01*
X4971293Y13846614D01*
X4982169Y13916472D01*
X4979616Y13986502D01*
X4964272Y14054640D01*
X4936802Y14118841D01*
X4897859Y14177037D01*
X4848087Y14227180D01*
X4788161Y14267210D01*
X4727191Y14293639D01*
X4666556Y14308584D01*
X4604555Y14312211D01*
X4539480Y14304695D01*
X2450343Y14187667D02*
G01*
X2489497Y14153870D01*
X2512628Y14109273D01*
X2518097Y14058844D01*
X2504292Y14007553D01*
X2483568Y13976591D01*
X2456334Y13953728D01*
X2424521Y13939093D01*
X2390117Y13932811D01*
X2355067Y13935019D01*
X2321333Y13945839D01*
X2290874Y13965405D01*
X2265659Y13993842D01*
X2250429Y14028582D01*
X2244638Y14069496D01*
X2248433Y14110070D01*
X2262002Y14143781D01*
X2299667Y14183941D01*
X2345890Y14205155D01*
X2397262Y14206654D01*
X2450343Y14187667D01*
X2400063Y14304695D02*
G01*
X2359992Y14294055D01*
X2283805Y14257510D01*
X2216434Y14203486D01*
X2162187Y14135397D01*
X2125179Y14061137D01*
X2116409Y14030530D01*
X2112068Y13939898D01*
X2116409Y13850068D01*
X2138573Y13786297D01*
X2173236Y13729418D01*
X2221085Y13676132D01*
X2276152Y13631755D01*
X2332408Y13601613D01*
X2409007Y13581217D01*
X2485776Y13576244D01*
X2561518Y13586698D01*
X2635026Y13612588D01*
X2682478Y13642342D01*
X2731368Y13686073D01*
X2775297Y13737170D01*
X2807827Y13789042D01*
X2830004Y13850416D01*
X2833537Y13886370D01*
X2830116Y14030299D01*
X2806006Y14095326D01*
X2777131Y14147383D01*
X2744403Y14190868D01*
X2706364Y14227497D01*
X2661544Y14258980D01*
X2599469Y14289521D01*
X2535262Y14307207D01*
X2468824Y14312211D01*
X2400063Y14304695D01*
X5903577Y12974421D02*
G01*
X5890580Y12960715D01*
X5884578Y12944152D01*
X5884712Y12926578D01*
X5890097Y12909847D01*
X5899843Y12895826D01*
X5913089Y12886352D01*
X5928951Y12883281D01*
X5946551Y12888478D01*
X5962228Y12900408D01*
X5972398Y12915379D01*
X5977260Y12931947D01*
X5977061Y12948704D01*
X5972025Y12964218D01*
X5962365Y12977063D01*
X5948311Y12985818D01*
X5930094Y12989049D01*
X5903577Y12974421D01*
X6781291Y14912695D02*
G01*
X6771233Y14904237D01*
X6765292Y14894407D01*
X6762998Y14865151D01*
X6765241Y14848037D01*
X6769968Y14836576D01*
X6778302Y14828893D01*
X6791350Y14823094D01*
X6813588Y14819411D01*
X6832450Y14824161D01*
X6847123Y14835324D01*
X6856834Y14850864D01*
X6860740Y14868766D01*
X6858073Y14886993D01*
X6848002Y14903531D01*
X6829747Y14916348D01*
X6803801Y14926177D01*
X6781291Y14912695D01*
X1131044Y12974421D02*
G01*
X1119441Y12962724D01*
X1113154Y12948381D01*
X1111757Y12932686D01*
X1114816Y12916936D01*
X1121897Y12902430D01*
X1132580Y12890461D01*
X1146441Y12882333D01*
X1163043Y12879336D01*
X1178328Y12885079D01*
X1194127Y12899219D01*
X1206500Y12917134D01*
X1211498Y12934193D01*
X1206500Y12951246D01*
X1194127Y12969161D01*
X1178328Y12983306D01*
X1163043Y12989049D01*
X1148755Y12984820D01*
X1131044Y12974421D01*
X246931Y14904460D02*
G01*
X231632Y14887221D01*
X225331Y14872121D01*
X227774Y14856508D01*
X238701Y14837724D01*
X254787Y14824478D01*
X276186Y14818177D01*
X297594Y14819591D01*
X313674Y14829495D01*
X325859Y14849436D01*
X329562Y14868352D01*
X324860Y14886576D01*
X311851Y14904460D01*
X293601Y14920404D01*
X279046Y14925718D01*
X264665Y14920404D01*
X246931Y14904460D01*
X4682096Y15250975D02*
G01*
X4671453Y15234450D01*
X4668278Y15215430D01*
X4672459Y15196591D01*
X4683930Y15180574D01*
X4701331Y15169405D01*
X4719586Y15165951D01*
X4737160Y15170033D01*
X4752502Y15181491D01*
X4761768Y15194818D01*
X4766492Y15208907D01*
X4766978Y15222971D01*
X4763592Y15236235D01*
X4756632Y15247907D01*
X4746464Y15257221D01*
X4733391Y15263378D01*
X4717765Y15265605D01*
X4698217Y15261376D01*
X4682096Y15250975D01*
X2329667Y15241836D02*
G01*
X2319152Y15217607D01*
X2327833Y15193373D01*
X2342865Y15175806D01*
X2361666Y15167322D01*
X2381831Y15168432D01*
X2400970Y15179662D01*
X2412392Y15196393D01*
X2417551Y15217490D01*
X2416014Y15238417D01*
X2407381Y15254635D01*
X2389187Y15264716D01*
X2367495Y15265374D01*
X2346299Y15257462D01*
X2329667Y15241836D01*
X7286886Y15926630D02*
G01*
X7263272Y15917057D01*
X7241964Y15902167D01*
X7223236Y15882142D01*
X7207336Y15857146D01*
X7197613Y15831957D01*
X7193645Y15806844D01*
X7195169Y15782396D01*
X7201966Y15759198D01*
X7213785Y15737847D01*
X7230356Y15718929D01*
X7251451Y15703029D01*
X7276828Y15690743D01*
X7313625Y15681690D01*
X7347681Y15684804D01*
X7379680Y15700258D01*
X7424242Y15746145D01*
X7436667Y15780946D01*
X7436655Y15829117D01*
X7432489Y15847540D01*
X7409395Y15881827D01*
X7387145Y15901515D01*
X7358880Y15918632D01*
X7330975Y15929917D01*
X7309744Y15932111D01*
X7286886Y15926630D01*
X-264152Y15923884D02*
G01*
X-291162Y15911903D01*
X-313662Y15894527D01*
X-331228Y15872891D01*
X-343463Y15848111D01*
X-349951Y15821322D01*
X-350291Y15793646D01*
X-344070Y15766201D01*
X-330888Y15740118D01*
X-303268Y15709806D01*
X-270718Y15691172D01*
X-235681Y15683644D01*
X-200606Y15686633D01*
X-167927Y15699562D01*
X-140091Y15721855D01*
X-119540Y15752942D01*
X-108724Y15792226D01*
X-108910Y15823313D01*
X-116936Y15852142D01*
X-131620Y15877758D01*
X-151805Y15899203D01*
X-176319Y15915492D01*
X-203992Y15925688D01*
X-233659Y15928802D01*
X-264152Y15923884D01*
X5508612Y15448457D02*
G01*
X5496085Y15433347D01*
X5491347Y15419430D01*
X5494337Y15404492D01*
X5504954Y15386291D01*
X5520072Y15372090D01*
X5538787Y15366634D01*
X5558185Y15370088D01*
X5575350Y15382633D01*
X5586524Y15400032D01*
X5589983Y15418290D01*
X5585891Y15435856D01*
X5574444Y15451206D01*
X5557601Y15462349D01*
X5541180Y15465605D01*
X5524934Y15460972D01*
X5508612Y15448457D01*
X4952728Y16503538D02*
G01*
X4938910Y16489461D01*
X4932512Y16473022D01*
X4932659Y16455900D01*
X4938440Y16439771D01*
X4948994Y16426289D01*
X4963406Y16417137D01*
X4980792Y16413993D01*
X5000277Y16418514D01*
X5014069Y16427046D01*
X5023929Y16437767D01*
X5029845Y16449946D01*
X5031816Y16462852D01*
X5029845Y16475763D01*
X5023929Y16487942D01*
X5014069Y16498663D01*
X5000277Y16507195D01*
X4975125Y16517025D01*
X4952728Y16503538D01*
X1510469Y15450289D02*
G01*
X1501457Y15436961D01*
X1496852Y15422872D01*
X1496341Y15408808D01*
X1499610Y15395544D01*
X1506352Y15383873D01*
X1516255Y15374559D01*
X1529003Y15368402D01*
X1544297Y15366174D01*
X1561939Y15370502D01*
X1578465Y15381604D01*
X1590713Y15396646D01*
X1595493Y15412801D01*
X1590868Y15431256D01*
X1579041Y15448688D01*
X1563098Y15461660D01*
X1546125Y15466745D01*
X1526920Y15461945D01*
X1510469Y15450289D01*
X2081895Y16503538D02*
G01*
X2068883Y16489834D01*
X2062894Y16473263D01*
X2063018Y16455697D01*
X2068400Y16438971D01*
X2078161Y16424937D01*
X2091408Y16415468D01*
X2107270Y16412405D01*
X2124857Y16417597D01*
X2143297Y16431107D01*
X2154349Y16447541D01*
X2157524Y16465679D01*
X2152289Y16484338D01*
X2137691Y16505981D01*
X2121893Y16516225D01*
X2103686Y16515326D01*
X2081895Y16503538D01*
X5409864Y14898067D02*
G01*
X5400352Y14879320D01*
X5398902Y14855093D01*
X5404977Y14832236D01*
X5418099Y14817608D01*
X5435897Y14811103D01*
X5452988Y14810836D01*
X5468404Y14815840D01*
X5481177Y14825146D01*
X5490370Y14837803D01*
X5494982Y14852835D01*
X5494065Y14869281D01*
X5486671Y14886180D01*
X5470425Y14901148D01*
X5449293Y14908578D01*
X5427649Y14907778D01*
X5409864Y14898067D01*
X1598241Y14885261D02*
G01*
X1587723Y14861034D01*
X1596410Y14836805D01*
X1612981Y14819350D01*
X1635726Y14810295D01*
X1659153Y14810836D01*
X1677781Y14822177D01*
X1686011Y14838362D01*
X1688752Y14858410D01*
X1686011Y14878621D01*
X1677781Y14895319D01*
X1660207Y14907252D01*
X1638007Y14909149D01*
X1615808Y14901621D01*
X1598241Y14885261D01*
X3467943Y17029249D02*
G01*
X3355924Y17006917D01*
X3302099Y16988929D01*
X3199828Y16939760D01*
X3106079Y16873661D01*
X3062919Y16834507D01*
X3002384Y16768650D01*
X2953765Y16700568D01*
X2914934Y16626997D01*
X2883717Y16544683D01*
X2860166Y16448148D01*
X2850989Y16350810D01*
X2855800Y16254095D01*
X2874230Y16159429D01*
X2905907Y16068227D01*
X2950443Y15981926D01*
X3007481Y15901949D01*
X3076625Y15829711D01*
X3124893Y15791916D01*
X3228987Y15728657D01*
X3253084Y15722742D01*
X3387488Y16097597D01*
X3313706Y16171867D01*
X3287140Y16219314D01*
X3271192Y16273096D01*
X3266356Y16372911D01*
X3270336Y16402050D01*
X3296058Y16462392D01*
X3334021Y16517099D01*
X3381263Y16559565D01*
X3435474Y16589392D01*
X3494336Y16606166D01*
X3555565Y16609484D01*
X3616833Y16598938D01*
X3675867Y16574119D01*
X3730340Y16534625D01*
X3771478Y16490025D01*
X3799593Y16442512D01*
X3815704Y16389852D01*
X3820850Y16329825D01*
X3815816Y16267539D01*
X3807741Y16241755D01*
X3765425Y16166739D01*
X3698341Y16097597D01*
X3810683Y15787197D01*
X3835473Y15728231D01*
X3849626Y15726079D01*
X3873883Y15734847D01*
X3942455Y15777715D01*
X4056880Y15877567D01*
X4117888Y15955652D01*
X4171429Y16057890D01*
X4212021Y16170976D01*
X4234693Y16281102D01*
X4234159Y16400122D01*
X4223481Y16468725D01*
X4205945Y16536019D01*
X4181759Y16601480D01*
X4151152Y16664589D01*
X4114340Y16724807D01*
X4071515Y16781622D01*
X4022910Y16834507D01*
X3945199Y16903080D01*
X3856509Y16955193D01*
X3759286Y16996338D01*
X3662225Y17022391D01*
X3565164Y17033367D01*
X3467943Y17029249D01*
X4676614Y8884846D02*
G01*
X4712655Y8868227D01*
X4775857Y8822606D01*
X4825306Y8762535D01*
X4844145Y8727864D01*
X4868613Y8650795D01*
X4873152Y8596635D01*
X4866556Y8541197D01*
X4849329Y8486607D01*
X4801207Y8406556D01*
X4777531Y8381527D01*
X4722936Y8341852D01*
X4661171Y8316193D01*
X4595240Y8304740D01*
X4528108Y8307684D01*
X4462759Y8325220D01*
X4402162Y8357549D01*
X4374578Y8379315D01*
X4318706Y8445972D01*
X4296196Y8490569D01*
X4281771Y8537729D01*
X4275472Y8586563D01*
X4277319Y8636172D01*
X4287329Y8685646D01*
X4305536Y8734102D01*
X4331939Y8780617D01*
X4362028Y8814376D01*
X4401987Y8847020D01*
X4446226Y8874348D01*
X4489188Y8892164D01*
X4532485Y8899766D01*
X4583249Y8900845D01*
X4633826Y8895760D01*
X4676614Y8884846D01*
X2654226Y8865649D02*
G01*
X2696083Y8840576D01*
X2728516Y8813192D01*
X2755800Y8779123D01*
X2794955Y8706904D01*
X2802458Y8681194D01*
X2806910Y8605080D01*
X2802681Y8530790D01*
X2786806Y8479823D01*
X2760017Y8433655D01*
X2724744Y8392281D01*
X2682788Y8357425D01*
X2635943Y8330796D01*
X2580281Y8311895D01*
X2523914Y8304255D01*
X2468191Y8307362D01*
X2414463Y8320737D01*
X2364071Y8343887D01*
X2318382Y8376307D01*
X2278720Y8417519D01*
X2233736Y8494440D01*
X2226233Y8520391D01*
X2221781Y8600511D01*
X2226010Y8679822D01*
X2244638Y8733078D01*
X2277379Y8785875D01*
X2318915Y8829395D01*
X2367483Y8863098D01*
X2421321Y8886446D01*
X2478669Y8898917D01*
X2537780Y8899964D01*
X2596878Y8889050D01*
X2654226Y8865649D01*
X4813759Y9170101D02*
G01*
X4835946Y9153098D01*
X4852405Y9132272D01*
X4863045Y9108709D01*
X4867821Y9083476D01*
X4866629Y9057642D01*
X4859398Y9032273D01*
X4846065Y9008455D01*
X4826558Y8987246D01*
X4790554Y8962560D01*
X4747021Y8957078D01*
X4704730Y8962560D01*
X4672050Y8987246D01*
X4648225Y9017688D01*
X4635822Y9049760D01*
X4634892Y9083029D01*
X4645533Y9117073D01*
X4658753Y9138630D01*
X4675931Y9156476D01*
X4696185Y9170337D01*
X4718669Y9179935D01*
X4742533Y9184982D01*
X4766901Y9185219D01*
X4790925Y9180352D01*
X4813759Y9170101D01*
X2387264Y9171017D02*
G01*
X2412540Y9153486D01*
X2430772Y9129707D01*
X2441935Y9101719D01*
X2446002Y9071589D01*
X2442951Y9041376D01*
X2432781Y9013136D01*
X2415430Y8988920D01*
X2390912Y8970794D01*
X2358826Y8959588D01*
X2326680Y8958163D01*
X2296045Y8965394D01*
X2268524Y8980164D01*
X2245654Y9001366D01*
X2229048Y9027876D01*
X2220254Y9058592D01*
X2220861Y9092387D01*
X2226617Y9116479D01*
X2236749Y9135590D01*
X2252873Y9152303D01*
X2276635Y9169189D01*
X2302532Y9180662D01*
X2329545Y9184848D01*
X2357760Y9181660D01*
X2387264Y9171017D01*
X6434769Y9374906D02*
G01*
X6467513Y9357370D01*
X6523484Y9312821D01*
X6546552Y9286534D01*
X6582445Y9227720D01*
X6604149Y9163019D01*
X6611020Y9095315D01*
X6602437Y9027505D01*
X6592130Y8994465D01*
X6559128Y8931920D01*
X6536258Y8903134D01*
X6492031Y8863017D01*
X6443004Y8831821D01*
X6385407Y8810792D01*
X6308600Y8806223D01*
X6232611Y8810680D01*
X6207163Y8818178D01*
X6135971Y8858732D01*
X6097178Y8892392D01*
X6064895Y8931188D01*
X6039805Y8974447D01*
X6020432Y9034734D01*
X6014430Y9100164D01*
X6021809Y9166275D01*
X6042545Y9228615D01*
X6073167Y9281325D01*
X6111935Y9325272D01*
X6157417Y9359917D01*
X6208153Y9384728D01*
X6262700Y9399170D01*
X6319613Y9402701D01*
X6377459Y9394794D01*
X6434769Y9374906D01*
X899728Y9377641D02*
G01*
X944928Y9350331D01*
X989098Y9310674D01*
X1026759Y9264500D01*
X1052413Y9217644D01*
X1066843Y9159204D01*
X1070470Y9094335D01*
X1063470Y9030319D01*
X1046012Y8974447D01*
X1002314Y8905323D01*
X975151Y8877170D01*
X910915Y8834170D01*
X834379Y8809565D01*
X791845Y8804391D01*
X725246Y8805638D01*
X667047Y8819822D01*
X613643Y8848234D01*
X561446Y8892164D01*
X522846Y8938133D01*
X496763Y8986334D01*
X481985Y9040017D01*
X477329Y9102445D01*
X480844Y9151416D01*
X491230Y9197304D01*
X508236Y9239758D01*
X531614Y9278447D01*
X561126Y9313019D01*
X596516Y9343130D01*
X637542Y9368444D01*
X683958Y9388617D01*
X733872Y9400014D01*
X789787Y9401647D01*
X846726Y9394019D01*
X899728Y9377641D01*
X6518894Y9667471D02*
G01*
X6541256Y9638624D01*
X6553845Y9607971D01*
X6557157Y9577039D01*
X6551686Y9547362D01*
X6537957Y9520461D01*
X6516451Y9497888D01*
X6487678Y9481164D01*
X6452146Y9471817D01*
X6413164Y9472909D01*
X6379900Y9485541D01*
X6353484Y9507283D01*
X6335006Y9535703D01*
X6325567Y9568357D01*
X6326273Y9602830D01*
X6338229Y9636676D01*
X6362550Y9667471D01*
X6397861Y9692159D01*
X6442087Y9697646D01*
X6485630Y9692500D01*
X6518894Y9667471D01*
X715962Y9681189D02*
G01*
X732513Y9667186D01*
X745716Y9649228D01*
X761329Y9605876D01*
X761342Y9559942D01*
X755048Y9538771D01*
X744301Y9520275D01*
X712403Y9489988D01*
X675617Y9473412D01*
X635916Y9470900D01*
X595274Y9482787D01*
X569645Y9500288D01*
X550702Y9524733D01*
X538962Y9555175D01*
X534931Y9590669D01*
X539445Y9623214D01*
X552028Y9651100D01*
X571233Y9673635D01*
X595617Y9690100D01*
X623727Y9699797D01*
X654118Y9702012D01*
X685340Y9696046D01*
X715962Y9681189D01*
X4350222Y12293282D02*
G01*
X4381835Y12266513D01*
X4391731Y12248121D01*
X4398690Y12207013D01*
X4387179Y12167709D01*
X4362996Y12136597D01*
X4357984Y12099683D01*
X4368502Y11568262D01*
X4467931Y11406088D01*
X4513138Y11370233D01*
X4531705Y11344485D01*
X4544108Y11312916D01*
X4548621Y11278430D01*
X4545632Y11248689D01*
X4536391Y11222205D01*
X4520455Y11198461D01*
X4486523Y11166802D01*
X4482218Y11155461D01*
X4491012Y11103805D01*
X4507247Y11053290D01*
X4518273Y11037204D01*
X5120048Y10467467D01*
X5139816Y10476153D01*
X5201605Y10530438D01*
X5231010Y10537639D01*
X5265054Y10521863D01*
X5373303Y10424492D01*
X5988832Y10418551D01*
X6059723Y10420951D01*
X6125220Y10432498D01*
X6148039Y10425869D01*
X6165875Y10402780D01*
X6197600Y10320027D01*
X6213983Y10293182D01*
X6237201Y10273710D01*
X6304942Y10235928D01*
X6328717Y10212382D01*
X6369966Y10141211D01*
X6408376Y10051008D01*
X6439420Y9953952D01*
X6458544Y9862212D01*
X6462773Y9809528D01*
X6459189Y9794199D01*
X6437523Y9764341D01*
X6425046Y9755454D01*
X6413573Y9754438D01*
X6392763Y9776978D01*
X6320942Y10031468D01*
X6294028Y10096939D01*
X6226324Y10217868D01*
X6179789Y10194546D01*
X6157008Y10190279D01*
X6109977Y10202440D01*
X6063294Y10240825D01*
X6005065Y10330327D01*
X5396953Y10328838D01*
X5350085Y10323141D01*
X5278709Y10294980D01*
X5254414Y10293939D01*
X5207855Y10305877D01*
X5168788Y10335214D01*
X5133416Y10378554D01*
X5067609Y10399364D01*
X5018323Y10437408D01*
X4751585Y10692376D01*
X4532957Y10909406D01*
X4437075Y11013287D01*
X4384390Y11144034D01*
X4372322Y11159350D01*
X4328988Y11193332D01*
X4309988Y11221864D01*
X4300588Y11258102D01*
X4299930Y11304028D01*
X4310794Y11329746D01*
X4368502Y11399118D01*
X4302968Y11500388D01*
X4285071Y11562433D01*
X4276453Y11667157D01*
X4265190Y12131451D01*
X4224337Y12187397D01*
X4219699Y12215571D01*
X4228454Y12243742D01*
X4250568Y12272256D01*
X4274616Y12291870D01*
X4298330Y12301623D01*
X4323072Y12301954D01*
X4350222Y12293282D01*
X2846227Y12271336D02*
G01*
X2861630Y12243539D01*
X2866577Y12212142D01*
X2860885Y12181085D01*
X2832112Y12136084D01*
X2824967Y12096254D01*
X2809775Y11650687D01*
X2801653Y11554086D01*
X2782229Y11496575D01*
X2725539Y11400030D01*
X2773202Y11340089D01*
X2785305Y11311719D01*
X2790352Y11282870D01*
X2788518Y11254432D01*
X2779948Y11227277D01*
X2764817Y11202286D01*
X2705547Y11153246D01*
X2694917Y11135692D01*
X2646001Y10996836D01*
X2072977Y10442780D01*
X2021606Y10401609D01*
X1959495Y10378666D01*
X1916503Y10334685D01*
X1875066Y10305026D01*
X1829605Y10293238D01*
X1806376Y10294335D01*
X1736420Y10321856D01*
X1688635Y10327698D01*
X1085329Y10333067D01*
X1079840Y10297411D01*
X1066472Y10261754D01*
X1038702Y10226098D01*
X1001897Y10197411D01*
X960983Y10191353D01*
X922355Y10195582D01*
X864529Y10215239D01*
X857156Y10212021D01*
X814232Y10147007D01*
X780300Y10070894D01*
X750315Y9982100D01*
X707156Y9809868D01*
X686699Y9771700D01*
X664758Y9750673D01*
X633486Y9783899D01*
X628073Y9798217D01*
X630013Y9853074D01*
X649945Y9964254D01*
X686587Y10076723D01*
X734026Y10175651D01*
X759952Y10215407D01*
X818586Y10284383D01*
X833269Y10344597D01*
X848989Y10374096D01*
X872243Y10400680D01*
X900645Y10420840D01*
X952642Y10437291D01*
X1028570Y10421335D01*
X1091158Y10418663D01*
X1699722Y10424492D01*
X1718823Y10478107D01*
X1739839Y10503923D01*
X1766168Y10525452D01*
X1794804Y10539691D01*
X1828452Y10544937D01*
X1862348Y10539120D01*
X1894705Y10522849D01*
X1948172Y10474896D01*
X1965784Y10467467D01*
X2055726Y10547578D01*
X2568983Y11037031D01*
X2580294Y11052601D01*
X2609428Y11155921D01*
X2557251Y11214285D01*
X2544650Y11240678D01*
X2538572Y11268031D01*
X2545567Y11322080D01*
X2577282Y11369309D01*
X2617787Y11401059D01*
X2634914Y11422204D01*
X2720058Y11574660D01*
X2728861Y12093282D01*
X2723753Y12133994D01*
X2699519Y12183554D01*
X2694000Y12208593D01*
X2696034Y12232784D01*
X2718010Y12273836D01*
X2752067Y12295411D01*
X2791879Y12299497D01*
X2811635Y12294765D01*
X2846227Y12271336D01*
X4107022Y12626080D02*
G01*
X4135140Y12607335D01*
X4156397Y12583106D01*
X4167075Y12559964D01*
X4173214Y12508184D01*
X4161147Y12457521D01*
X4149067Y12435768D01*
X4133354Y12418082D01*
X4091482Y12394765D01*
X4091482Y11526205D01*
X3872049Y11024262D01*
X3875707Y10747580D01*
X3882082Y10708535D01*
X3933416Y10540151D01*
X3987116Y10471696D01*
X3996507Y10422440D01*
X3982753Y10372153D01*
X3967274Y10348447D01*
X3911363Y10296494D01*
X3917764Y10245298D01*
X3929634Y10182237D01*
X3969842Y10046525D01*
X4039181Y9898471D01*
X4086796Y9824267D01*
X4150009Y9746642D01*
X4386795Y9497418D01*
X4456163Y9503183D01*
X4485071Y9495586D01*
X4512617Y9479762D01*
X4551535Y9440501D01*
X4558444Y9424273D01*
X4565525Y9319473D01*
X4584042Y9271929D01*
X4545881Y9222221D01*
X4486671Y9254101D01*
X4433255Y9252955D01*
X4404233Y9259831D01*
X4377034Y9274274D01*
X4353074Y9294787D01*
X4333788Y9319889D01*
X4320603Y9348086D01*
X4314936Y9377895D01*
X4327364Y9439813D01*
X4088036Y9680587D01*
X4021645Y9759584D01*
X3969842Y9837557D01*
X3920505Y9930785D01*
X3884190Y10015072D01*
X3854226Y10106558D01*
X3833850Y10193586D01*
X3824833Y10284142D01*
X3819141Y10300271D01*
X3765984Y10357878D01*
X3754226Y10375013D01*
X3749489Y10394708D01*
X3753878Y10470895D01*
X3779713Y10505864D01*
X3834505Y10548266D01*
X3835250Y10559348D01*
X3798392Y10662251D01*
X3789535Y10702782D01*
X3778796Y11018776D01*
X3901876Y11280378D01*
X4000052Y11525288D01*
X3997647Y12340940D01*
X3991955Y12392726D01*
X3958145Y12427582D01*
X3941190Y12452479D01*
X3930576Y12480980D01*
X3926903Y12511793D01*
X3930723Y12546825D01*
X3942334Y12576708D01*
X3962003Y12601790D01*
X3989994Y12622423D01*
X4019339Y12635463D01*
X4047815Y12640363D01*
X4076649Y12637206D01*
X4107022Y12626080D01*
X3091258Y12626992D02*
G01*
X3119213Y12609344D01*
X3140583Y12587282D01*
X3155205Y12561874D01*
X3162907Y12534193D01*
X3163552Y12505314D01*
X3156955Y12476312D01*
X3142965Y12448245D01*
X3086681Y12388367D01*
X3084860Y11482318D01*
X3226569Y11165291D01*
X3295167Y11049347D01*
X3302000Y11022893D01*
X3305200Y10893524D01*
X3295253Y10707692D01*
X3282441Y10637664D01*
X3255937Y10550895D01*
X3306229Y10510502D01*
X3324385Y10486181D01*
X3335832Y10458909D01*
X3340508Y10429981D01*
X3338375Y10400710D01*
X3329383Y10372407D01*
X3313460Y10346375D01*
X3264743Y10296951D01*
X3252503Y10193754D01*
X3206638Y10028956D01*
X3174453Y9949985D01*
X3123666Y9851430D01*
X3068513Y9767013D01*
X2998439Y9682429D01*
X2765772Y9446214D01*
X2772531Y9372866D01*
X2767718Y9344433D01*
X2741538Y9297987D01*
X2696169Y9268518D01*
X2667360Y9261294D01*
X2592636Y9257761D01*
X2543721Y9236621D01*
X2526233Y9246903D01*
X2510693Y9276278D01*
X2513111Y9291005D01*
X2530114Y9320156D01*
X2521198Y9392729D01*
X2533550Y9428845D01*
X2556197Y9463559D01*
X2585206Y9487816D01*
X2619684Y9501101D01*
X2701775Y9499246D01*
X2959371Y9769302D01*
X3023605Y9857643D01*
X3077778Y9958357D01*
X3119709Y10053754D01*
X3149475Y10144353D01*
X3167136Y10230667D01*
X3176290Y10293753D01*
X3101317Y10371924D01*
X3096059Y10390007D01*
X3097113Y10447393D01*
X3104281Y10473753D01*
X3117291Y10495823D01*
X3153135Y10539834D01*
X3169566Y10582236D01*
X3200288Y10707004D01*
X3223107Y10859206D01*
X3229693Y10935896D01*
X3229112Y11041446D01*
X3215370Y11084948D01*
X3019945Y11494201D01*
X3011711Y11704487D01*
X3003489Y12393853D01*
X2952117Y12424011D01*
X2932633Y12448369D01*
X2920690Y12478382D01*
X2916633Y12513624D01*
X2920652Y12549294D01*
X2933080Y12578877D01*
X2954423Y12603497D01*
X2985206Y12624252D01*
X3037880Y12640711D01*
X3091258Y12626992D01*
X-283349Y12669050D02*
G01*
X-166575Y12651277D01*
X-142341Y12640815D01*
X-105730Y12608656D01*
X-86525Y12562959D01*
X-84038Y12535562D01*
X-89067Y12497737D01*
X-126095Y12437739D01*
X-70233Y12340536D01*
X-18666Y12266538D01*
X164175Y12029838D01*
X162316Y12010268D01*
X132420Y11980824D01*
X118021Y11974202D01*
X99174Y11987639D01*
X-34663Y12143338D01*
X-103807Y12245510D01*
X-188224Y12387051D01*
X-199809Y12397282D01*
X-273979Y12427452D01*
X-323049Y12476424D01*
X-331236Y12493736D01*
X-333077Y12516197D01*
X-329636Y12597394D01*
X-342775Y12641623D01*
X-335290Y12660050D01*
X-317865Y12673167D01*
X-298033Y12677366D01*
X-283349Y12669050D01*
X4702213Y12824475D02*
G01*
X4737186Y12801854D01*
X4749017Y12785905D01*
X4772286Y12725194D01*
X4772507Y12689847D01*
X4760206Y12656908D01*
X4703130Y12593165D01*
X4721410Y12416711D01*
X4758730Y12373328D01*
X5151127Y12001624D01*
X5360725Y11816369D01*
X5406207Y11782158D01*
X5429064Y11773054D01*
X5451810Y11781284D01*
X5503689Y11822645D01*
X5533268Y11836486D01*
X5564002Y11842272D01*
X5594548Y11840258D01*
X5623557Y11830700D01*
X5649663Y11813857D01*
X5671530Y11789984D01*
X5703354Y11718198D01*
X6564609Y11718198D01*
X6715460Y11847116D01*
X6682991Y11885023D01*
X6666283Y11927885D01*
X6665267Y11973786D01*
X6670687Y11996298D01*
X6693519Y12037280D01*
X6733654Y12068782D01*
X6780832Y12080824D01*
X6830057Y12073153D01*
X6901520Y12027910D01*
X6915683Y12025398D01*
X7096025Y12258768D01*
X7175908Y12375108D01*
X7209172Y12435911D01*
X7172596Y12502654D01*
X7168418Y12536492D01*
X7173404Y12569738D01*
X7187133Y12600749D01*
X7209172Y12627912D01*
X7244829Y12651333D01*
X7407460Y12664020D01*
X7419454Y12659908D01*
X7427107Y12648369D01*
X7413513Y12596365D01*
X7421834Y12539632D01*
X7420383Y12514640D01*
X7413823Y12490655D01*
X7387419Y12448920D01*
X7346838Y12420861D01*
X7302500Y12408626D01*
X7286315Y12396594D01*
X7181601Y12232896D01*
X7108825Y12131568D01*
X7035713Y12040008D01*
X6933740Y11932940D01*
X6899003Y11881142D01*
X6848139Y11836171D01*
X6805861Y11818317D01*
X6597512Y11634086D01*
X6216550Y11621528D01*
X6049639Y11622087D01*
X5689983Y11641515D01*
X5673079Y11637218D01*
X5615805Y11598658D01*
X5591721Y11592204D01*
X5544195Y11591615D01*
X5527017Y11596717D01*
X5490319Y11623116D01*
X5464497Y11650085D01*
X5449849Y11674914D01*
X5350210Y11717746D01*
X5302895Y11750197D01*
X4905524Y12110770D01*
X4718286Y12289043D01*
X4636394Y12374656D01*
X4606714Y12586548D01*
X4559584Y12626992D01*
X4538649Y12652598D01*
X4526285Y12681651D01*
X4522094Y12712458D01*
X4525652Y12743340D01*
X4536528Y12772585D01*
X4554313Y12798506D01*
X4578598Y12819415D01*
X4608959Y12833621D01*
X4654214Y12840710D01*
X4702213Y12824475D01*
X7707449Y12961620D02*
G01*
X7724427Y12941962D01*
X7736296Y12919892D01*
X7743080Y12896260D01*
X7744818Y12871909D01*
X7741554Y12847680D01*
X7733294Y12824432D01*
X7720086Y12803007D01*
X7701968Y12784249D01*
X7668343Y12765732D01*
X7629735Y12759568D01*
X7591140Y12765732D01*
X7557515Y12784249D01*
X7538478Y12804602D01*
X7525245Y12827894D01*
X7517767Y12853050D01*
X7516030Y12878996D01*
X7519987Y12904632D01*
X7529611Y12928892D01*
X7544879Y12950687D01*
X7565740Y12968932D01*
X7600477Y12984248D01*
X7639334Y12987909D01*
X7676827Y12980248D01*
X7707449Y12961620D01*
X-465292Y12958874D02*
G01*
X-445510Y12935818D01*
X-432694Y12910009D01*
X-426684Y12882717D01*
X-427347Y12855221D01*
X-434522Y12828798D01*
X-448058Y12804719D01*
X-467817Y12784267D01*
X-493631Y12768709D01*
X-534001Y12758054D01*
X-571606Y12760995D01*
X-604621Y12775331D01*
X-631230Y12798877D01*
X-649610Y12829456D01*
X-657943Y12864876D01*
X-654403Y12902958D01*
X-637176Y12941505D01*
X-619787Y12961533D01*
X-596831Y12976250D01*
X-568901Y12985478D01*
X-536605Y12989049D01*
X-499231Y12983220D01*
X-465292Y12958874D01*
X8208479Y13422419D02*
G01*
X8256724Y13398319D01*
X8303679Y13360593D01*
X8344631Y13313773D01*
X8388324Y13229704D01*
X8395332Y13202307D01*
X8395903Y13127106D01*
X8388362Y13057504D01*
X8371222Y13009166D01*
X8342807Y12963977D01*
X8307796Y12924017D01*
X8267463Y12890748D01*
X8191177Y12852567D01*
X8163793Y12845503D01*
X8088708Y12844592D01*
X8026003Y12850761D01*
X7974533Y12865160D01*
X7929412Y12889849D01*
X7885732Y12926875D01*
X7857591Y12958340D01*
X7818102Y13028439D01*
X7806469Y13065993D01*
X7798643Y13143420D01*
X7802166Y13182221D01*
X7823286Y13257298D01*
X7862181Y13325424D01*
X7887926Y13355530D01*
X7951228Y13405147D01*
X7988485Y13423582D01*
X8029277Y13437047D01*
X8068332Y13442088D01*
X8163247Y13434349D01*
X8208479Y13422419D01*
X-885855Y13415106D02*
G01*
X-842962Y13391281D01*
X-806145Y13362490D01*
X-775370Y13329467D01*
X-731812Y13253758D01*
X-718977Y13212556D01*
X-711001Y13127217D01*
X-726429Y13042955D01*
X-742838Y13003095D01*
X-792888Y12931663D01*
X-826460Y12901594D01*
X-865690Y12876281D01*
X-910541Y12856479D01*
X-958918Y12845633D01*
X-1015690Y12843103D01*
X-1073825Y12848635D01*
X-1126312Y12861963D01*
X-1178557Y12889166D01*
X-1226083Y12928706D01*
X-1265554Y12977162D01*
X-1293627Y13031104D01*
X-1307157Y13086946D01*
X-1310655Y13148703D01*
X-1304038Y13209948D01*
X-1287226Y13264250D01*
X-1265745Y13302630D01*
X-1203914Y13374949D01*
X-1171110Y13400471D01*
X-1139657Y13416663D01*
X-1069286Y13437003D01*
X-994115Y13440928D01*
X-920315Y13428012D01*
X-885855Y13415106D01*
X3312518Y13683902D02*
G01*
X3353828Y13598022D01*
X3398713Y13546249D01*
X3461420Y13509942D01*
X3533056Y13494171D01*
X3601206Y13502289D01*
X3631653Y13513203D01*
X3685989Y13545505D01*
X3727312Y13588255D01*
X3770337Y13677130D01*
X3802570Y13698984D01*
X3838910Y13700274D01*
X3856050Y13692398D01*
X3871142Y13678415D01*
X3885542Y13653516D01*
X3888966Y13625959D01*
X3881424Y13592398D01*
X3842382Y13514263D01*
X3817962Y13482048D01*
X3758455Y13427445D01*
X3686248Y13387245D01*
X3645979Y13373031D01*
X3603254Y13362985D01*
X3545420Y13357633D01*
X3487376Y13362348D01*
X3430562Y13376374D01*
X3376401Y13398990D01*
X3326295Y13429444D01*
X3281697Y13467003D01*
X3244019Y13510928D01*
X3214687Y13560475D01*
X3200796Y13596515D01*
X3196170Y13627328D01*
X3200796Y13654199D01*
X3214687Y13678415D01*
X3236404Y13695857D01*
X3262906Y13702761D01*
X3289772Y13698860D01*
X3312518Y13683902D01*
X4726904Y14410753D02*
G01*
X4790975Y14390570D01*
X4846563Y14363781D01*
X4898542Y14327565D01*
X4951808Y14279097D01*
X5003142Y14222008D01*
X5040162Y14165955D01*
X5066370Y14104757D01*
X5085295Y14032240D01*
X5095130Y13960698D01*
X5089872Y13882296D01*
X5075930Y13812080D01*
X5052900Y13747341D01*
X5021671Y13688418D01*
X4983162Y13635614D01*
X4938265Y13589266D01*
X4887925Y13549690D01*
X4833007Y13517201D01*
X4774443Y13492132D01*
X4713137Y13474799D01*
X4649998Y13465515D01*
X4585926Y13464616D01*
X4521845Y13472419D01*
X4458655Y13489241D01*
X4397250Y13515403D01*
X4338551Y13551227D01*
X4283471Y13597044D01*
X4218967Y13671984D01*
X4173301Y13753617D01*
X4146166Y13843129D01*
X4137197Y13941729D01*
X4146214Y14037053D01*
X4173077Y14126301D01*
X4217415Y14208508D01*
X4278906Y14282755D01*
X4325863Y14324025D01*
X4377060Y14358553D01*
X4431667Y14386092D01*
X4488842Y14406407D01*
X4547791Y14419267D01*
X4607656Y14424441D01*
X4667646Y14421680D01*
X4726904Y14410753D01*
X2585653Y14410753D02*
G01*
X2644688Y14391109D01*
X2700621Y14364152D01*
X2752750Y14330560D01*
X2800400Y14290984D01*
X2842864Y14246095D01*
X2879440Y14196552D01*
X2909440Y14143032D01*
X2932173Y14086184D01*
X2946227Y14020297D01*
X2951373Y13945839D01*
X2947603Y13872753D01*
X2934916Y13810983D01*
X2910545Y13748387D01*
X2880172Y13691102D01*
X2844142Y13639472D01*
X2802806Y13593843D01*
X2756481Y13554557D01*
X2705547Y13521959D01*
X2650319Y13496391D01*
X2538984Y13468677D01*
X2436428Y13466023D01*
X2338400Y13483742D01*
X2247503Y13520087D01*
X2166355Y13573323D01*
X2097570Y13641727D01*
X2068636Y13681075D01*
X2023305Y13768964D01*
X1996864Y13867668D01*
X1991740Y13951353D01*
X2001677Y14033797D01*
X2025525Y14113098D01*
X2062124Y14187327D01*
X2110333Y14254571D01*
X2169020Y14312912D01*
X2237023Y14360431D01*
X2313211Y14395208D01*
X2390912Y14418066D01*
X2490340Y14422635D01*
X2585653Y14410753D01*
X6881863Y15054404D02*
G01*
X6895802Y15039776D01*
X6894426Y14973150D01*
X6925134Y14913869D01*
X6933951Y14862738D01*
X6920991Y14813805D01*
X6906889Y14792109D01*
X6887977Y14773305D01*
X6827911Y14739894D01*
X6820606Y14080698D01*
X6746427Y13947439D01*
X6719689Y13867556D01*
X6667350Y13799101D01*
X6624142Y13603559D01*
X6577408Y13434306D01*
X6350657Y13195678D01*
X6177409Y13026194D01*
X6126695Y12981607D01*
X6065179Y12941846D01*
X6042149Y12879753D01*
X6021524Y12852250D01*
X5993345Y12830063D01*
X5938713Y12809921D01*
X5921745Y12809047D01*
X5880719Y12822646D01*
X5849576Y12840147D01*
X5827006Y12861851D01*
X5812320Y12888861D01*
X5804842Y12922305D01*
X5805685Y12954335D01*
X5815695Y12985849D01*
X5833765Y13014622D01*
X5858779Y13038416D01*
X5891237Y13053689D01*
X5929871Y13058421D01*
X5968839Y13052691D01*
X6041641Y13018305D01*
X6502438Y13478184D01*
X6573118Y13791816D01*
X6569174Y13800929D01*
X6545546Y13815496D01*
X6520718Y13840018D01*
X6500007Y13868300D01*
X6488719Y13894183D01*
X6484180Y13928867D01*
X6487342Y13957726D01*
X6498742Y13983159D01*
X6518894Y14007553D01*
X6549702Y14031541D01*
X6583685Y14044470D01*
X6619565Y14046255D01*
X6692602Y14024013D01*
X6725257Y14093837D01*
X6731000Y14144470D01*
X6733740Y14436354D01*
X6731111Y14725835D01*
X6725643Y14769734D01*
X6699460Y14807437D01*
X6686202Y14836805D01*
X6684614Y14888723D01*
X6704373Y14938753D01*
X6739049Y14976431D01*
X6796371Y14998631D01*
X6816897Y15034765D01*
X6842645Y15060505D01*
X6855345Y15064463D01*
X6881863Y15054404D01*
X272534Y15026065D02*
G01*
X289222Y15001491D01*
X304533Y14991321D01*
X329704Y14985250D01*
X355048Y14968804D01*
X377304Y14944651D01*
X393217Y14915436D01*
X401586Y14881664D01*
X400532Y14849604D01*
X389874Y14818232D01*
X358886Y14766323D01*
X353560Y14720237D01*
X352988Y14100812D01*
X402363Y14022181D01*
X469986Y14046367D01*
X501792Y14045709D01*
X531873Y14036123D01*
X558700Y14018872D01*
X580727Y13995232D01*
X596417Y13966484D01*
X604217Y13933904D01*
X602587Y13898760D01*
X590519Y13868717D01*
X568418Y13837389D01*
X543062Y13812743D01*
X507504Y13796360D01*
X582470Y13478184D01*
X1049672Y13016476D01*
X1122474Y13055394D01*
X1163439Y13059209D01*
X1202606Y13049448D01*
X1237096Y13028475D01*
X1264046Y12998630D01*
X1280584Y12962260D01*
X1283835Y12921716D01*
X1270929Y12879336D01*
X1257790Y12858445D01*
X1241971Y12841119D01*
X1203840Y12817736D01*
X1159713Y12810294D01*
X1136388Y12812897D01*
X1083612Y12835519D01*
X1060643Y12856362D01*
X1043843Y12882519D01*
X1020874Y12941962D01*
X959043Y12982333D01*
X906815Y13027906D01*
X507504Y13423328D01*
X417332Y13795214D01*
X364307Y13874526D01*
X345559Y13944239D01*
X287164Y14040469D01*
X274835Y14069143D01*
X268076Y14114183D01*
X256989Y14735893D01*
X215960Y14761039D01*
X187505Y14785609D01*
X160875Y14821037D01*
X156517Y14839863D01*
X160075Y14909490D01*
X190474Y14971433D01*
X189334Y15035319D01*
X193847Y15044762D01*
X222133Y15062194D01*
X240761Y15060922D01*
X257677Y15048849D01*
X272534Y15026065D01*
X4664732Y15370746D02*
G01*
X4696729Y15345488D01*
X4761506Y15333873D01*
X4790033Y15320347D01*
X4813472Y15299791D01*
X4831011Y15273832D01*
X4841824Y15244104D01*
X4845088Y15212230D01*
X4839964Y15179847D01*
X4825639Y15148575D01*
X4794709Y15117378D01*
X4752393Y15097831D01*
X4706454Y15092009D01*
X4664732Y15101948D01*
X4623582Y15132217D01*
X4598217Y15170632D01*
X4589647Y15214706D01*
X4609307Y15298978D01*
X4589536Y15341191D01*
X4586102Y15358287D01*
X4589536Y15373845D01*
X4613435Y15399288D01*
X4626447Y15400690D01*
X4664732Y15370746D01*
X2486919Y15384462D02*
G01*
X2498341Y15364686D01*
X2472060Y15298861D01*
X2494917Y15234338D01*
X2496195Y15204516D01*
X2489771Y15175644D01*
X2476512Y15149034D01*
X2457312Y15126027D01*
X2433017Y15107945D01*
X2404503Y15096126D01*
X2372629Y15091890D01*
X2345344Y15094320D01*
X2298786Y15112819D01*
X2265126Y15147335D01*
X2247018Y15195313D01*
X2245705Y15248191D01*
X2261219Y15283073D01*
X2303078Y15323233D01*
X2324745Y15335318D01*
X2380866Y15341488D01*
X2397434Y15349717D01*
X2440891Y15392300D01*
X2456977Y15401030D01*
X2471341Y15398272D01*
X2486919Y15384462D01*
X7050087Y15458516D02*
G01*
X7072734Y15439087D01*
X7091337Y15412120D01*
X7103950Y15381373D01*
X7108601Y15350634D01*
X7102995Y15321048D01*
X7087803Y15292232D01*
X7065403Y15267706D01*
X7038205Y15250975D01*
X7002312Y15242499D01*
X6967301Y15245915D01*
X6935129Y15259235D01*
X6907806Y15280462D01*
X6887281Y15307599D01*
X6875561Y15338661D01*
X6874619Y15371650D01*
X6886425Y15404571D01*
X6919973Y15445148D01*
X6961398Y15468574D01*
X6983684Y15473431D01*
X7006257Y15473486D01*
X7028581Y15468574D01*
X7050087Y15458516D01*
X156418Y15455775D02*
G01*
X181935Y15432912D01*
X199577Y15405900D01*
X209438Y15376431D01*
X211620Y15346177D01*
X206214Y15316819D01*
X193321Y15290050D01*
X173032Y15267538D01*
X145448Y15250975D01*
X117091Y15241389D01*
X92075Y15238747D01*
X67922Y15243131D01*
X42136Y15254635D01*
X17338Y15273332D01*
X-3347Y15299319D01*
X-17518Y15328564D01*
X-22776Y15357035D01*
X-19992Y15378943D01*
X-12123Y15400286D01*
X73Y15420355D01*
X34452Y15453710D01*
X77142Y15473182D01*
X99733Y15475892D01*
X127391Y15469946D01*
X156418Y15455775D01*
X7451453Y16077481D02*
G01*
X7494191Y16049655D01*
X7534882Y16012574D01*
X7569733Y15969995D01*
X7594996Y15925713D01*
X7610957Y15870646D01*
X7616365Y15804685D01*
X7611330Y15738901D01*
X7595915Y15684345D01*
X7568592Y15638345D01*
X7531000Y15594055D01*
X7487914Y15556290D01*
X7444135Y15529829D01*
X7383673Y15512361D01*
X7313513Y15506631D01*
X7244209Y15512732D01*
X7186315Y15530748D01*
X7152878Y15549699D01*
X7096495Y15597304D01*
X7073676Y15625185D01*
X7039048Y15687167D01*
X7019577Y15754857D01*
X7015734Y15825160D01*
X7028047Y15894987D01*
X7040412Y15928751D01*
X7077880Y15992040D01*
X7103120Y16020795D01*
X7152147Y16062083D01*
X7202538Y16088456D01*
X7259452Y16101801D01*
X7328024Y16103996D01*
X7399002Y16096566D01*
X7451453Y16077481D01*
X-119694Y16088456D02*
G01*
X-70365Y16063584D01*
X-26093Y16029371D01*
X11831Y15986757D01*
X57503Y15903742D01*
X66365Y15876115D01*
X71394Y15811431D01*
X68257Y15766112D01*
X45869Y15682503D01*
X3429Y15610984D01*
X-24780Y15580774D01*
X-57360Y15554802D01*
X-124353Y15520230D01*
X-151693Y15512460D01*
X-228488Y15507891D01*
X-305290Y15512460D01*
X-332630Y15520230D01*
X-412892Y15564711D01*
X-454830Y15604474D01*
X-488119Y15651111D01*
X-512147Y15702973D01*
X-526318Y15758386D01*
X-530031Y15815698D01*
X-522691Y15873244D01*
X-503689Y15929371D01*
X-471848Y15984915D01*
X-431347Y16030854D01*
X-382445Y16067199D01*
X-325407Y16093937D01*
X-279765Y16103754D01*
X-224947Y16105944D01*
X-168932Y16100752D01*
X-119694Y16088456D01*
X5047815Y16568453D02*
G01*
X5088384Y16523878D01*
X5101432Y16495936D01*
X5106329Y16469710D01*
X5102275Y16439479D01*
X5073934Y16382794D01*
X5024041Y16340795D01*
X5024958Y15919312D01*
X5454662Y15512460D01*
X5511924Y15535770D01*
X5548833Y15539887D01*
X5586239Y15533885D01*
X5617629Y15517390D01*
X5642135Y15492684D01*
X5658891Y15462056D01*
X5667039Y15427789D01*
X5665713Y15392158D01*
X5654029Y15357449D01*
X5631124Y15325948D01*
X5600402Y15303723D01*
X5566072Y15292659D01*
X5530489Y15291841D01*
X5496036Y15300350D01*
X5465104Y15317254D01*
X5440065Y15341630D01*
X5423296Y15372575D01*
X5410781Y15436689D01*
X5387924Y15462176D01*
X4932611Y15890057D01*
X4932611Y16339883D01*
X4877841Y16389250D01*
X4862202Y16417670D01*
X4854425Y16448255D01*
X4854326Y16479420D01*
X4861730Y16509608D01*
X4876452Y16537241D01*
X4898318Y16560731D01*
X4927127Y16578511D01*
X4955753Y16586454D01*
X4988161Y16587198D01*
X5020208Y16581084D01*
X5047815Y16568453D01*
X2169665Y16573022D02*
G01*
X2196307Y16552024D01*
X2215878Y16526911D01*
X2228303Y16498968D01*
X2233551Y16469481D01*
X2231542Y16439741D01*
X2222251Y16411028D01*
X2205596Y16384625D01*
X2153208Y16340795D01*
X2153208Y15890057D01*
X1688752Y15452117D01*
X1673212Y15433606D01*
X1664685Y15376319D01*
X1636819Y15330022D01*
X1590606Y15298254D01*
X1563725Y15289987D01*
X1535986Y15287960D01*
X1485671Y15302867D01*
X1449938Y15330766D01*
X1437096Y15347906D01*
X1421277Y15386230D01*
X1418356Y15426860D01*
X1428031Y15466075D01*
X1450007Y15500156D01*
X1483989Y15525396D01*
X1529666Y15538058D01*
X1570464Y15537370D01*
X1632066Y15511548D01*
X2060859Y15919312D01*
X2061778Y16339883D01*
X2005210Y16391996D01*
X1988629Y16422166D01*
X1981944Y16462585D01*
X1987859Y16500381D01*
X2004293Y16533782D01*
X2029096Y16561023D01*
X2060153Y16580340D01*
X2095350Y16589951D01*
X2132558Y16588104D01*
X2169665Y16573022D01*
X3742220Y17112449D02*
G01*
X3824859Y17084713D01*
X3902522Y17049650D01*
X3974988Y17007469D01*
X4041998Y16958393D01*
X4103303Y16902628D01*
X4158668Y16840393D01*
X4207830Y16771899D01*
X4250568Y16697368D01*
X4290418Y16610012D01*
X4315706Y16528567D01*
X4328988Y16442154D01*
X4332846Y16339883D01*
X4328939Y16240640D01*
X4316623Y16157600D01*
X4292996Y16077468D01*
X4215818Y15903773D01*
X4427016Y15695315D01*
X4713188Y15695315D01*
X5192153Y15200462D01*
X5382940Y14994823D01*
X5395353Y14988009D01*
X5476925Y14982179D01*
X5507695Y14971892D01*
X5532983Y14953033D01*
X5554327Y14924577D01*
X5569000Y14891773D01*
X5573798Y14858751D01*
X5569582Y14826927D01*
X5557179Y14797719D01*
X5537461Y14772543D01*
X5511253Y14752805D01*
X5479417Y14739932D01*
X5442780Y14735324D01*
X5401406Y14740923D01*
X5366903Y14763663D01*
X5341800Y14792020D01*
X5325864Y14823894D01*
X5319712Y14857653D01*
X5333070Y14924577D01*
X4670214Y15613032D01*
X4388619Y15613032D01*
X4165539Y15835200D01*
X4050517Y15731703D01*
X3940609Y15658299D01*
X3838178Y15612955D01*
X3807246Y15605602D01*
X3785405Y15606984D01*
X3769654Y15616684D01*
X3731778Y15704027D01*
X3670338Y15876574D01*
X3614204Y16049457D01*
X3592276Y16137823D01*
X3605075Y16158629D01*
X3657884Y16201026D01*
X3698590Y16250041D01*
X3707023Y16269822D01*
X3714800Y16325255D01*
X3713200Y16381597D01*
X3693764Y16422166D01*
X3663652Y16460482D01*
X3630452Y16485938D01*
X3591420Y16500083D01*
X3543820Y16504450D01*
X3489200Y16500109D01*
X3468997Y16493652D01*
X3426668Y16466355D01*
X3391359Y16423736D01*
X3371354Y16372799D01*
X3367943Y16317150D01*
X3385319Y16254239D01*
X3403363Y16225024D01*
X3428776Y16199065D01*
X3489883Y16151311D01*
X3497201Y16126853D01*
X3411253Y15859887D01*
X3353160Y15699315D01*
X3315370Y15622402D01*
X3298019Y15607710D01*
X3278436Y15604802D01*
X3222909Y15622170D01*
X3164184Y15649102D01*
X3037123Y15732099D01*
X2920281Y15835200D01*
X2697200Y15613032D01*
X2411945Y15613032D01*
X1793892Y14964691D01*
X1759092Y14919876D01*
X1767179Y14880889D01*
X1763811Y14828608D01*
X1754578Y14802977D01*
X1734263Y14773541D01*
X1707083Y14752439D01*
X1675333Y14739688D01*
X1641320Y14735324D01*
X1607355Y14739355D01*
X1575737Y14751806D01*
X1548767Y14772703D01*
X1528749Y14802065D01*
X1516875Y14836576D01*
X1514281Y14870038D01*
X1520154Y14901224D01*
X1533667Y14928918D01*
X1553994Y14951905D01*
X1580306Y14968946D01*
X1611790Y14978837D01*
X1687835Y14977602D01*
X1845096Y15146746D01*
X2375372Y15695315D01*
X2658800Y15695315D01*
X2870001Y15903773D01*
X2798130Y16065710D01*
X2773189Y16146282D01*
X2756794Y16226853D01*
X2748978Y16307427D01*
X2749773Y16387998D01*
X2759212Y16468570D01*
X2777342Y16549141D01*
X2804170Y16629707D01*
X2844739Y16717291D01*
X2897484Y16800151D01*
X2960773Y16876905D01*
X3032968Y16946166D01*
X3112455Y17006552D01*
X3197595Y17056689D01*
X3286770Y17095193D01*
X3446909Y17134390D01*
X3502571Y17138159D01*
X3675247Y17125137D01*
X3742220Y17112449D01*
X3268624Y17474506D02*
G01*
X3059051Y17438717D01*
X2838686Y17385017D01*
X2623454Y17317775D01*
X2522761Y17280445D01*
X2429322Y17241359D01*
X2333116Y17192985D01*
X2232446Y17131362D01*
X2129444Y17058345D01*
X2026231Y16975764D01*
X1924954Y16885475D01*
X1827733Y16789306D01*
X1736712Y16689115D01*
X1654007Y16586738D01*
X1565485Y16461966D01*
X1485793Y16335293D01*
X1415044Y16206894D01*
X1353324Y16076909D01*
X1300734Y15945520D01*
X1257368Y15812871D01*
X1223324Y15679135D01*
X1198699Y15544459D01*
X1177597Y15356433D01*
X1170470Y15166174D01*
X1177223Y14972835D01*
X1197780Y14775550D01*
X1230182Y14592515D01*
X1251638Y14503400D01*
X1305867Y14328371D01*
X1376245Y14155539D01*
X1417899Y14069156D01*
X1514922Y13894884D01*
X1631322Y13716515D01*
X1768381Y13531522D01*
X2000410Y13246305D01*
X2008248Y13227458D01*
X2004181Y13214878D01*
X1987722Y13199602D01*
X1960450Y13185632D01*
X1882693Y13163334D01*
X1789336Y13151487D01*
X1698805Y13153616D01*
X1601993Y13173458D01*
X1506283Y13208292D01*
X1411665Y13258098D01*
X1318127Y13322876D01*
X1225661Y13402612D01*
X1134257Y13497290D01*
X1043899Y13606901D01*
X954582Y13731440D01*
X914138Y13796591D01*
X837150Y13949126D01*
X769292Y14121251D01*
X715274Y14300875D01*
X694933Y14389727D01*
X658477Y14658522D01*
X618385Y15181511D01*
X600702Y15342748D01*
X576933Y15482727D01*
X546130Y15604573D01*
X507362Y15711426D01*
X459673Y15806402D01*
X402132Y15892635D01*
X333791Y15973257D01*
X273751Y16030872D01*
X210022Y16080338D01*
X142346Y16121755D01*
X70477Y16155200D01*
X-25481Y16188077D01*
X-117591Y16208585D01*
X-205351Y16216764D01*
X-288262Y16212685D01*
X-365813Y16196388D01*
X-437504Y16167930D01*
X-502828Y16127361D01*
X-561286Y16074740D01*
X-599460Y16029701D01*
X-628030Y15985944D01*
X-649747Y15938586D01*
X-667344Y15882739D01*
X-677552Y15827839D01*
X-677875Y15712033D01*
X-653460Y15598371D01*
X-632762Y15546146D01*
X-606808Y15499024D01*
X-575914Y15458516D01*
X-534863Y15421775D01*
X-479231Y15382633D01*
X-417779Y15346921D01*
X-304081Y15296387D01*
X-253845Y15266720D01*
X-208564Y15231524D01*
X-168262Y15190861D01*
X-132979Y15144800D01*
X-102735Y15093403D01*
X-77576Y15036739D01*
X-47475Y14927305D01*
X-40952Y14861839D01*
X-25920Y14389440D01*
X-16835Y14249151D01*
X-1582Y14133896D01*
X22938Y14009382D01*
X47203Y13912850D01*
X115793Y13716744D01*
X206418Y13526076D01*
X313408Y13352251D01*
X455617Y13175307D01*
X657219Y12955592D01*
X810574Y12809631D01*
X878644Y12757119D01*
X947143Y12712948D01*
X1017445Y12676479D01*
X1090909Y12647079D01*
X1168928Y12624122D01*
X1344066Y12594996D01*
X1443893Y12589736D01*
X1546806Y12594765D01*
X1656240Y12610424D01*
X1902693Y12669050D01*
X1907585Y12664343D01*
X1904466Y12651295D01*
X1878464Y12606535D01*
X1833265Y12547549D01*
X1777436Y12487107D01*
X1715145Y12430018D01*
X1578056Y12331860D01*
X1426994Y12256505D01*
X1265212Y12205660D01*
X1181323Y12189965D01*
X1070129Y12178240D01*
X969213Y12179114D01*
X871730Y12193183D01*
X770818Y12221052D01*
X667519Y12261354D01*
X574588Y12309624D01*
X488348Y12368006D01*
X405104Y12438651D01*
X330032Y12516606D01*
X261218Y12604935D01*
X190517Y12715720D01*
X44320Y12978488D01*
X-19179Y13081408D01*
X-81904Y13171147D01*
X-145064Y13249046D01*
X-209847Y13316445D01*
X-277459Y13374687D01*
X-349107Y13425109D01*
X-425978Y13469043D01*
X-538744Y13520074D01*
X-649975Y13555675D01*
X-762576Y13576528D01*
X-879462Y13583333D01*
X-945238Y13580864D01*
X-1067661Y13561715D01*
X-1176467Y13524854D01*
X-1225232Y13500254D01*
X-1310426Y13439675D01*
X-1377751Y13365162D01*
X-1404180Y13323155D01*
X-1441500Y13230585D01*
X-1456692Y13127862D01*
X-1449438Y13023570D01*
X-1425234Y12932506D01*
X-1385404Y12852753D01*
X-1330685Y12784869D01*
X-1261800Y12729436D01*
X-1179482Y12687020D01*
X-1084460Y12658178D01*
X-1032408Y12649027D01*
X-866990Y12639804D01*
X-773904Y12624165D01*
X-691144Y12590101D01*
X-611428Y12534701D01*
X-501507Y12424953D01*
X-444835Y12345738D01*
X-393136Y12248522D01*
X-302963Y12038154D01*
X-263804Y11963567D01*
X-218648Y11892930D01*
X-164492Y11821510D01*
X-98605Y11745818D01*
X-24810Y11672460D01*
X55201Y11602653D01*
X227093Y11478605D01*
X315589Y11426799D01*
X403529Y11383441D01*
X489216Y11349743D01*
X633648Y11310701D01*
X794357Y11284948D01*
X959525Y11273762D01*
X1117328Y11278430D01*
X1274856Y11297610D01*
X1422697Y11327475D01*
X1562310Y11368669D01*
X1695152Y11421856D01*
X1822678Y11487688D01*
X1946348Y11566817D01*
X2067618Y11659890D01*
X2242690Y11816717D01*
X2269319Y11834317D01*
X2271092Y11795843D01*
X2262238Y11715117D01*
X2226345Y11528033D01*
X2177851Y11378214D01*
X2149574Y11311371D01*
X2083109Y11190648D01*
X2044166Y11135507D01*
X1952972Y11032492D01*
X1877689Y10965223D01*
X1801210Y10911235D01*
X1719237Y10868050D01*
X1627497Y10833181D01*
X1553697Y10811718D01*
X1476641Y10796605D01*
X1138013Y10766163D01*
X1035954Y10749409D01*
X945560Y10724939D01*
X861329Y10691464D01*
X785390Y10651144D01*
X711715Y10602069D01*
X641101Y10545056D01*
X574357Y10480954D01*
X512284Y10410588D01*
X455686Y10334810D01*
X405371Y10254444D01*
X362130Y10170325D01*
X304236Y10023586D01*
X281249Y9947932D01*
X247202Y9793833D01*
X229090Y9638395D01*
X226943Y9484487D01*
X240809Y9334964D01*
X253745Y9262745D01*
X291673Y9125173D01*
X345678Y8999133D01*
X387182Y8927660D01*
X432772Y8865504D01*
X482333Y8812740D01*
X535731Y8769418D01*
X592863Y8735621D01*
X653602Y8711394D01*
X717834Y8696807D01*
X785446Y8691933D01*
X874496Y8700472D01*
X916594Y8710612D01*
X994953Y8741679D01*
X1064214Y8785918D01*
X1122771Y8841828D01*
X1147551Y8873690D01*
X1187096Y8944322D01*
X1201475Y8982707D01*
X1218443Y9064698D01*
X1220637Y9107934D01*
X1212923Y9193131D01*
X1189098Y9276618D01*
X1148128Y9361474D01*
X1057046Y9498142D01*
X1032512Y9544385D01*
X1015329Y9589770D01*
X1005438Y9634555D01*
X1002797Y9679000D01*
X1007343Y9723356D01*
X1019020Y9767887D01*
X1037785Y9812845D01*
X1084696Y9883955D01*
X1115573Y9917013D01*
X1188714Y9975466D01*
X1272486Y10020119D01*
X1316639Y10035926D01*
X1405669Y10046096D01*
X1713605Y10061458D01*
X1823839Y10072382D01*
X1915208Y10089311D01*
X2004181Y10114551D01*
X2086521Y10145450D01*
X2263886Y10237081D01*
X2345209Y10290093D01*
X2411971Y10341533D01*
X2480256Y10401411D01*
X2615145Y10539468D01*
X2737345Y10690207D01*
X2789770Y10765942D01*
X2885541Y10922774D01*
X2892661Y10909876D01*
X2898800Y10874077D01*
X2907258Y10755350D01*
X2909204Y10609709D01*
X2902917Y10480266D01*
X2885528Y10358084D01*
X2858071Y10246984D01*
X2819585Y10145433D01*
X2769082Y10051925D01*
X2705608Y9964930D01*
X2628155Y9882926D01*
X2535783Y9804400D01*
X2181151Y9560290D01*
X2098537Y9480704D01*
X2012962Y9363961D01*
X1978583Y9299935D01*
X1943719Y9220075D01*
X1923262Y9148620D01*
X1913780Y9068247D01*
X1916981Y8824963D01*
X1936526Y8723932D01*
X1968017Y8626629D01*
X2009043Y8536396D01*
X2058578Y8454387D01*
X2115604Y8381763D01*
X2179104Y8319691D01*
X2248049Y8269312D01*
X2321433Y8231789D01*
X2398229Y8208279D01*
X2460363Y8198830D01*
X2521607Y8196442D01*
X2581386Y8200969D01*
X2639143Y8212279D01*
X2694335Y8230237D01*
X2746400Y8254695D01*
X2794782Y8285515D01*
X2838909Y8322569D01*
X2869219Y8354504D01*
X2916237Y8424923D01*
X2945208Y8504306D01*
X2952960Y8547435D01*
X2955030Y8640737D01*
X2947875Y8700566D01*
X2933428Y8755936D01*
X2909900Y8811988D01*
X2844873Y8933004D01*
X2828056Y8986217D01*
X2824446Y9036522D01*
X2833425Y9086905D01*
X2856755Y9142549D01*
X2896628Y9198787D01*
X2957240Y9260347D01*
X3110928Y9389137D01*
X3171118Y9446232D01*
X3270460Y9564042D01*
X3311029Y9626760D01*
X3377516Y9764793D01*
X3438537Y9960000D01*
X3456284Y10116728D01*
X3464768Y10430309D01*
X3485766Y12736934D01*
X3491174Y12794023D01*
X3500859Y12814424D01*
X3537544Y12832704D01*
X3558070Y12832933D01*
X3587513Y12816959D01*
X3596891Y12797482D01*
X3603599Y12749839D01*
X3608163Y12656022D01*
X3620282Y10607476D01*
X3628628Y10167924D01*
X3636802Y10048603D01*
X3648969Y9967516D01*
X3666096Y9903122D01*
X3717851Y9753432D01*
X3782019Y9616907D01*
X3819933Y9557301D01*
X3913423Y9446618D01*
X4191111Y9200634D01*
X4219823Y9165871D01*
X4252267Y9099915D01*
X4260613Y9025651D01*
X4255937Y8964965D01*
X4236852Y8915933D01*
X4159709Y8761648D01*
X4135363Y8671824D01*
X4130352Y8594694D01*
X4138836Y8521080D01*
X4160067Y8452091D01*
X4193306Y8388852D01*
X4237819Y8332464D01*
X4292861Y8284052D01*
X4357700Y8244725D01*
X4431593Y8215596D01*
X4504098Y8201967D01*
X4588619Y8199140D01*
X4672782Y8206600D01*
X4744267Y8223826D01*
X4799916Y8248314D01*
X4853942Y8280206D01*
X4905672Y8318853D01*
X4999570Y8413780D01*
X5076179Y8527856D01*
X5106329Y8590452D01*
X5135067Y8667879D01*
X5155928Y8747706D01*
X5169583Y8833705D01*
X5177594Y8997063D01*
X5167497Y9118983D01*
X5156161Y9175018D01*
X5119898Y9281033D01*
X5064274Y9384047D01*
X5020591Y9441675D01*
X4960266Y9505645D01*
X4892761Y9566869D01*
X4827475Y9616274D01*
X4569010Y9790435D01*
X4490877Y9855014D01*
X4421957Y9922675D01*
X4362102Y9993640D01*
X4311167Y10068123D01*
X4268985Y10146327D01*
X4235424Y10228473D01*
X4210334Y10314779D01*
X4192785Y10412636D01*
X4181759Y10527121D01*
X4177939Y10648807D01*
X4181995Y10768266D01*
X4195203Y10922650D01*
X4218658Y10899081D01*
X4279503Y10794448D01*
X4391794Y10632076D01*
X4448957Y10559808D01*
X4545520Y10455783D01*
X4648161Y10362554D01*
X4758171Y10279268D01*
X4876838Y10205069D01*
X5013238Y10137526D01*
X5080756Y10112822D01*
X5227698Y10078318D01*
X5312445Y10067241D01*
X5660095Y10048242D01*
X5749985Y10037986D01*
X5814491Y10018471D01*
X5880719Y9984729D01*
X5936010Y9948986D01*
X5983584Y9907927D01*
X6022924Y9862070D01*
X6067696Y9780216D01*
X6075697Y9752274D01*
X6080038Y9674788D01*
X6076825Y9610961D01*
X6063234Y9557760D01*
X6033368Y9500443D01*
X5938862Y9359005D01*
X5906206Y9294174D01*
X5883325Y9229793D01*
X5870214Y9165871D01*
X5866866Y9102427D01*
X5873290Y9039461D01*
X5889487Y8976989D01*
X5936256Y8878112D01*
X5988522Y8813551D01*
X6019340Y8786080D01*
X6088733Y8741222D01*
X6166322Y8710452D01*
X6249527Y8694501D01*
X6335763Y8694135D01*
X6379207Y8700028D01*
X6465155Y8724435D01*
X6507002Y8743137D01*
X6542161Y8764389D01*
X6614828Y8826258D01*
X6650433Y8864737D01*
X6715422Y8951422D01*
X6742894Y8997485D01*
X6765739Y9043931D01*
X6805427Y9152117D01*
X6835688Y9275130D01*
X6854974Y9404827D01*
X6861746Y9533074D01*
X6850857Y9721075D01*
X6837474Y9812157D01*
X6795640Y9987005D01*
X6767487Y10070175D01*
X6697512Y10226550D01*
X6610362Y10367678D01*
X6560728Y10431779D01*
X6450149Y10545594D01*
X6389514Y10594713D01*
X6258321Y10675924D01*
X6157478Y10720194D01*
X6050892Y10750321D01*
X5917740Y10770679D01*
X5614329Y10797293D01*
X5522330Y10813064D01*
X5437497Y10841923D01*
X5344269Y10884148D01*
X5256187Y10932888D01*
X5186784Y10981288D01*
X5117939Y11046040D01*
X5054970Y11120462D01*
X4998280Y11203749D01*
X4948275Y11295118D01*
X4905336Y11393771D01*
X4869855Y11498912D01*
X4842245Y11609765D01*
X4822898Y11725516D01*
X4817417Y11824258D01*
X4824115Y11827588D01*
X4838786Y11820029D01*
X4995689Y11679745D01*
X5089697Y11603730D01*
X5183794Y11537033D01*
X5279130Y11479001D01*
X5376862Y11428989D01*
X5478152Y11386332D01*
X5584154Y11350383D01*
X5696036Y11320492D01*
X5805164Y11299012D01*
X5919167Y11284587D01*
X6035799Y11277178D01*
X6152840Y11276718D01*
X6268021Y11283162D01*
X6379133Y11296444D01*
X6483921Y11316525D01*
X6648846Y11368483D01*
X6783176Y11431071D01*
X6848289Y11468056D01*
X6973155Y11552237D01*
X7089167Y11648485D01*
X7194301Y11754929D01*
X7286513Y11869712D01*
X7363767Y11990964D01*
X7396149Y12053440D01*
X7464064Y12210727D01*
X7546007Y12364323D01*
X7589514Y12426081D01*
X7635763Y12479182D01*
X7685534Y12524648D01*
X7739644Y12563525D01*
X7877510Y12636134D01*
X8127504Y12650607D01*
X8210077Y12665280D01*
X8278588Y12688694D01*
X8341964Y12722994D01*
X8430988Y12800025D01*
X8470143Y12845392D01*
X8497392Y12886649D01*
X8526178Y12965917D01*
X8541842Y13058650D01*
X8543292Y13152920D01*
X8538331Y13196912D01*
X8514097Y13279661D01*
X8493831Y13320862D01*
X8439670Y13396930D01*
X8369571Y13462205D01*
X8286191Y13513849D01*
X8212559Y13546361D01*
X8143565Y13566185D01*
X8066336Y13576076D01*
X7896697Y13577211D01*
X7775648Y13562459D01*
X7667538Y13526881D01*
X7553350Y13464133D01*
X7417358Y13368200D01*
X7287988Y13248896D01*
X7227801Y13180250D01*
X7112731Y13020606D01*
X6935812Y12709425D01*
X6877397Y12617622D01*
X6817095Y12539197D01*
X6747456Y12463338D01*
X6648734Y12373792D01*
X6544604Y12303112D01*
X6488607Y12273767D01*
X6364980Y12224941D01*
X6246340Y12194052D01*
X6069632Y12179914D01*
X5945708Y12185055D01*
X5833181Y12201852D01*
X5738550Y12228141D01*
X5646699Y12262655D01*
X5558655Y12304712D01*
X5475472Y12353627D01*
X5398206Y12408712D01*
X5327898Y12469279D01*
X5265613Y12534651D01*
X5183969Y12648064D01*
X5180124Y12659890D01*
X5185295Y12665509D01*
X5228976Y12659809D01*
X5464535Y12605141D01*
X5596953Y12591567D01*
X5726795Y12593426D01*
X5856038Y12610536D01*
X5941019Y12630932D01*
X6022962Y12658135D01*
X6102621Y12692626D01*
X6180719Y12734881D01*
X6258011Y12785359D01*
X6335217Y12844536D01*
X6492379Y12990878D01*
X6622976Y13132991D01*
X6725975Y13262422D01*
X6812521Y13394585D01*
X6893742Y13544928D01*
X6965988Y13700175D01*
X7019119Y13839898D01*
X7058695Y13981168D01*
X7100255Y14211597D01*
X7107461Y14296125D01*
X7127118Y14850864D01*
X7133691Y14916937D01*
X7162899Y15026177D01*
X7213264Y15132578D01*
X7244717Y15177373D01*
X7280747Y15217030D01*
X7367798Y15282291D01*
X7533281Y15364233D01*
X7572710Y15389448D01*
X7650236Y15453357D01*
X7710225Y15526412D01*
X7748363Y15609031D01*
X7759824Y15655129D01*
X7768704Y15759318D01*
X7756773Y15874131D01*
X7721871Y15975360D01*
X7666421Y16061215D01*
X7592827Y16129942D01*
X7549977Y16157326D01*
X7453696Y16197038D01*
X7400864Y16208926D01*
X7287331Y16215649D01*
X7165281Y16198166D01*
X7111169Y16182614D01*
X7005886Y16137006D01*
X6905835Y16073498D01*
X6858261Y16035578D01*
X6768950Y15948459D01*
X6688719Y15847750D01*
X6619118Y15735188D01*
X6561683Y15612485D01*
X6517977Y15481373D01*
X6497835Y15390601D01*
X6481638Y15279093D01*
X6436964Y14695294D01*
X6415001Y14502866D01*
X6385333Y14343011D01*
X6344257Y14189496D01*
X6286350Y14013129D01*
X6226545Y13875674D01*
X6190853Y13811628D01*
X6036147Y13590643D01*
X5903577Y13427105D01*
X5847666Y13372721D01*
X5721299Y13279295D01*
X5585147Y13207763D01*
X5449117Y13163456D01*
X5383113Y13152175D01*
X5319476Y13148505D01*
X5259016Y13152704D01*
X5155704Y13174532D01*
X5115272Y13188063D01*
X5090789Y13201159D01*
X5080594Y13217047D01*
X5086101Y13240476D01*
X5109938Y13276249D01*
X5357154Y13565019D01*
X5437548Y13666886D01*
X5506554Y13761615D01*
X5617890Y13940383D01*
X5706094Y14122753D01*
X5755629Y14244538D01*
X5832462Y14476567D01*
X5860727Y14591207D01*
X5882853Y14707864D01*
X5910658Y14956010D01*
X5917295Y15091890D01*
X5915162Y15319603D01*
X5896147Y15545600D01*
X5861880Y15756862D01*
X5813983Y15940341D01*
X5777519Y16038370D01*
X5673897Y16257140D01*
X5545086Y16479342D01*
X5409928Y16672737D01*
X5345869Y16748564D01*
X5187416Y16907824D01*
X5032039Y17039988D01*
X4953805Y17097207D01*
X4792774Y17196462D01*
X4708611Y17239531D01*
X4531220Y17316729D01*
X4440709Y17349718D01*
X4348162Y17379193D01*
X4154474Y17428276D01*
X3945199Y17465357D01*
X3800139Y17477071D01*
X3408535Y17482332D01*
X3268624Y17474506D01*

%LPD*%
M02*
